<?xml version="1.0" encoding="utf-8"?>
<!-- Generator: Adobe Illustrator 19.0.0, SVG Export Plug-In . SVG Version: 6.00 Build 0)  -->
<svg version="1.1" id="Ebene_1" xmlns="http://www.w3.org/2000/svg" xmlns:xlink="http://www.w3.org/1999/xlink" x="0px" y="0px"
	 viewBox="60 -39.6 540 375.2" style="enable-background:new 60 -39.6 540 375.2;" xml:space="preserve">
<style type="text/css">
	.st0{fill:#FFFFFF;}
	.st1{fill:none;stroke:#FFFFFF;stroke-miterlimit:10;}
	.st2{fill:none;stroke:#FFFFFF;stroke-miterlimit:10;stroke-dasharray:12.2484,12.2484;}
	.st3{fill:none;stroke:#FFFFFF;stroke-miterlimit:10;stroke-dasharray:11.7262,11.7262;}
	.st4{fill:none;}
	.st5{enable-background:new    ;}
	.st6{fill:#FFED00;}
	.st7{fill:none;stroke:#FFED00;stroke-miterlimit:10;}
	.st8{fill:#FFED00;stroke:#FFED00;stroke-miterlimit:10;}
</style>
<g id="XMLID_478_">
	<path id="XMLID_485_" d="M221.5,328.6L221.5,328.6h-7.1l0.6-0.9l4.6-10.2l0.2-2.1l-0.8-0.5l-6.5,1.7l-5.9,0.3l-3.1-0.2l-1-0.3
		l-0.7-0.5l-6.2-2.7l-2.1-1l-2-1l-0.7-0.1L189,311l-2.6-1.7l-1.8-1.9l-0.9-2.1l-0.4-1l-1.7-4.1l-0.2-0.9l-0.6-5l-0.6-1.4l-0.8-1.8
		l-0.2-3.9l-0.2-0.6l-0.9-3.5l0.6-1.3l0.7-1l0.6-2.6l-0.4-0.7h0.6l1.2-1l-0.1-1.5v-0.7l-0.2-0.8l-0.3-1.6v-2.4l0.8-2.6l0.2-0.4
		l0.3-2.7l0.1-5.6l-0.7-1.7l-0.8-0.8l-0.6-1.3l-1.3-1.7l-0.7-1l0.1-2l-0.5-1.6l-0.5-1.1l-0.2-2.5l-1-2.6l-0.3-0.6l0.4-2.3l0,0
		l0.2,0.2l0.4,0.2l-0.1-0.4l-0.1-0.6l0.2-1.8l0.3-1.2l-0.2-0.7l-0.7-0.3l-2.7-1.5l-2.2-1.1l-2.2-2.9c0,0-1-2.6-1-2.7l0.7-3.9
		l8.4-14.3l-8.1,14.5l-0.4,3.6l0.9,2.3l1.8,2l1,0.8l0.8,0.4l0.5-0.4l1-1.5l0.1-0.3l1.6-2.8l1.2-2.7l-0.1-2.5l0.5-2.7l4.3-8.7v-1.4
		l0.2-0.7l0.9-1.5l0.2-0.4l1-1.6l0.9-1.1l0.3-0.3l1-1.8l0.2-0.9l0.7-2.4l0.2-0.5l0.9-0.6l0.7-0.5l0.2-0.7l1.7-1.4l0.7-0.9l0.5-3
		l1.9-2.1l1.7-1.9l0.3-0.5l0.7-1.1v-0.2l0.7-1.8l1.3-1.7h0.6l0.6,0.5h0.5l0.9-1.7l0.4-0.5l0.5,0.2l-0.1,0.7l0.2,0.7l0.2,1l-0.3,1.2
		l-0.5,0.6l-1.3,0.7l-0.6,0.5l-0.5,1l-0.3,0.9l-0.7,1.8v0.1l-0.8,2.1l-0.4,0.1l-0.5,0.4l0.2,1.9l0.8,0.8l0.5,0.7l1.2,1.4l0.7-0.4
		v-0.9l-0.1-1.3l0.4-2.3l0.7-0.8l0.9,0.9l0.1,2.3l-0.2,3.1l-0.1,1.7l-0.4,0.6l-0.3,1l0.1,0.2l-0.9,1.8l-0.5,1.3l0.3,0.3l0.3,0.8
		l-0.1,0.7l-0.2,1.6l-1.3,0.4l-1.2-0.3l-0.2-0.3l-0.4-0.8l-1,0.5l-0.8,1.2l-0.1,1l0.2,1.4l0.5,0.5l0.4,0.7l0.7,2.2l0.1,0.1l0.4,1.3
		l1,1l2.5,2.8l0.6,0.1l1,0.4l1.3,1.4l0.3,0.2l2.3,4.8l-1.4,3.9l-2.7,1.7l-1.6,1.2l-1.5,1.4l-0.9,1.3l0.2,0.5l1.7,0.5l0.6,0.4l1,0.1
		h1.2l0.3,0.2l2.5-0.4l0.7,0.2l1,1.4l0.3,0.8l0.5-0.7l1.8-0.1l0.6-0.1l0.8-0.1h1.9l0.7,0.2l0.8-0.2l1.1-0.4l1.4,0.7l0.7-0.1l1.1,0.2
		l2,0.2l1-0.1l0.9-0.1h0.6l1.9,1.2l0.6,0.6l1,2.2l1,1.5l0.5,1.6l0.5,2.6l1,2l0.2,0.3l0.3,0.5l0.7-0.6l0.4-1.1l0.1-0.6l-0.2-2.9
		l-0.2-1.4l-0.1-1l0.3-0.7l-0.8-1.9l-0.9-1.6l-0.7-0.6l-0.2-0.5l-0.3-1.6l-0.1-0.8l-0.1-1.3l-0.9-0.2l-0.3-0.4l0.5-0.8l-0.2-1.2
		l0.4-0.1l0.3-0.9v-1.8v-0.1l1.8-1.4l0.4-0.4l1.5-0.9l0.8-1l0.2-2.7l0.8-0.9l0.9-1.5l0.4-2l-0.6-1.3l-1.2-0.3l1.2-0.2l0.7-0.5
		l-0.5-0.4l-0.1-1.1l0.1-0.8l0.2-0.6l0.1-0.6h-0.5l-0.1,0.1l-0.8-0.1l-0.1-0.3l0.7-0.4l0.8-1.1l-0.5-0.2l-2.5-0.8v-0.4l-0.6-0.6
		l-0.3-0.1l-0.9-1.7l-0.4-0.2l-1.3-0.2l-0.4-1.6l1.1-0.2l0.6,0.4l0.9-0.2l0.6,0.8l1.1,0.6l0.6,0.5l0.2,1.1l0.3,0.4l0.4-0.3l0.3-1
		l1.7,1.6l0.8,0.2l0.7,0.3l0.5,0.5l0.8,0.7l2.7,1.8l0.5,0.4l0.8,1.1l1.8,1.7l0.2,0.5l1.1,1.3l1.9,1.5l1.7,0.8l0.6-0.2l1.1,0.2
		l0.2,0.4l0.1-0.5l-0.8-1.2l-0.9-0.7l0.2-2.4l0.3-0.4l-0.4-0.3l-0.4-0.8v-1.5l-0.8-0.8l-0.6-0.8l-0.8-0.6l-0.7-0.3l-2.2-1.5
		l-0.5-0.9l-0.4-1l-0.1-0.4l-0.5-2l-1.2-2.5l-0.2-1.9l-0.3-1.1l-0.4-1.5l0.8-0.7h0.5l1.1,1.4l1.2,0.3l0.4-0.2l0.1,0.5l0.6,1l2.2,1.2
		V199l-0.3-1.3l-0.6-1L247,196l-0.1-0.6l-0.4,0.4l-0.6,0.4l-0.4-0.6l-0.7-0.7l-0.6-0.7l-0.1-0.8l-0.7-0.7l-1.3-0.4l-2.1-0.9
		l-0.2-0.5l1.1-0.8l0.9-0.6l1.2-1.2l0.4-0.5l-0.4-1l-0.3,0.1l-1.7,0.3h-0.5l-1.5,0.9h-1.3l-0.5-0.9l0.3-1.2l-0.1-0.7l-0.5,0.3
		l-0.7-0.1l-0.1-0.7l-0.7-0.7l-0.4-0.2l0.3-0.4l0.1-0.5l-2.9-2.3L232,180l-1-0.4l-0.8-0.3l-0.8-0.5l-2-1.6l-1.6-0.7l-0.4,0.1
		l-0.3-0.2l0.3-0.3h0.3l0.3-0.3l-0.3-0.3l-0.2-1.7l0.9-1.6l1.3-0.9l1.7-0.2l0.5-0.4l-0.6-0.4l-0.3,0.1l-0.6-0.4l0.3-0.5l0.9-0.9
		l-0.6-0.1l-0.5-0.5l-0.3-0.3l-0.3,0.1l-2.3-1.4l-0.2-0.4l-0.6-1.8l0.6-1.1l0.5-0.6l-0.9-0.8l-1.3-0.4l-0.9,0.3l-0.7,0.1l-3.7-2
		l-4-1.2l-3.3-1l-0.4-0.1l-2.9-0.1l-0.6-0.1l-1.5-0.2l-0.4-0.1l-1.9-1H202l-1-0.2l-1.6-0.7l-0.4-0.5l-0.3-0.3l-1.4,0.6l-1-0.3
		l-1.7-0.6l-0.6,0.2l-1.7,2.3l-0.5,0.8l-1.1-0.5l-1.4-1.9l-0.2-0.4l-2.5-1.2h-1.7l-1-0.1l0.2,1.3l2.2,2.3l0.2,0.5l-0.6,0.1l-1-0.5
		l-1.5-0.9l-0.9,0.3l-1.1,2.2l-3,6.1l-1.6,6.6l-0.2,1.5l-1.1,4.3l0.1,1.9l1.1,0.1l4,0.1l1.1,1.5l1.5,2l0.5,0.8l-0.8,0.4l-0.9,0.3
		l-1.2,0.2l-3.2,0.6l-1,1.5l-0.3,0.8l0.1,1.7l1.2-0.1l1.4-0.3h0.5l3.3-0.7l2.4,0.4l0.6,0.6l-0.1,2.4l-0.3,0.9l-0.5,0.4l-0.5-0.4
		l-1.1-0.1l0.2,2.1l0.1,0.9l-1.2,1.8l-0.5,0.5l-2.2,1.2h-1l-0.8-0.3l-3.1-2.4l-0.1-0.7v-2.6l-0.7-2.8l-0.1-0.7l-0.3-1.1v-2.9l0.3-1
		l0.7-3.4l0.4-1.8l0.6-4.7l-0.2-1l-1.6-4.6l-0.2-2.1l-0.2-0.4l-0.5-2.8l-0.1-1.2l-0.8-2.8l-0.3-0.8v-3l0.3-0.5v-4l-1.6-1.8l-2.1-0.5
		l-1.2-0.4l-2.4-1.9l-2.6-2.2l-0.3-0.5l0.7-2.5l1.5-2.2l0.1-0.4l0.3-5.6l0.4-1.5l0.2-0.8l0.8-2l1.6-1.9l0.2-0.8l1.1-1.6l2-1.7
		l2.9-3.4l0.5-1.6l0.4-0.9l3.6-3.6l2-0.5l3.9-1.8l3.1,0.1l0.3,0.2l1.4-0.8l1.3-1.3l6.4-6.2l4.1-1.7l11.1-0.1l1.1-0.3l10.8-6l0.8-0.8
		l4.5-7.6l1.1-0.8l12.6-2.9l13.1-3.7l3.1-1.6l3.5-2l1.4-0.2l11.8,2.3l0.9,0.6l2.1,2.8l3.8,4.3l7.6,7.5l1.2,0.5h8.2l6.5,0.9l7.2,1.9
		l1.1,0.6l7.2,8.3l4.1,5.9l5,7.4l1,0.9l4.3,2.8l0.6,1.1l-0.1,47.3l-0.1,21.8l-0.1,50.1l-0.1,38.5l-0.8,1.4l-6.8,4.3l-1.3,1.2
		l-6.1,5.9l-1.6,1.1l-6,3.8l-0.6,1.1l25.2,32.4L221.5,328.6z M221.7,265l1.3-2.5l0.6-0.1l0.9-0.3l0.7-0.2l0.4-0.1l-0.1-0.5l-0.1-0.9
		l-0.7-1.1l-0.5-0.4l-0.2-0.7l-0.4-0.2l-0.8-0.4l-0.4-0.8l-1.6-0.8l-0.2-0.1l-1.1,0.2l-0.6-0.2v-0.5l-0.4-0.5l-0.4,0.5l-1.3,0.5
		l-0.3-0.2l-1.2,0.6l-0.2,0.5l-0.3-0.4l-0.1-0.4l-0.6-1.4l-1.3-1l-0.4,0.4l-0.1,0.4l-0.3-0.3l-1,0.3l-0.7,0.8l-1,0.9l-1.2,0.5
		l-0.7-0.3l0.5,0.8l0.6,1.7l-0.5,3.6l-0.6,2.9l-0.6,0.3l-0.8,0.1l-0.4,0.1l-0.1-0.5V265l-0.3-0.4L205,265l0.6,1.3l0.2,0.9l-0.1,0.6
		l1,0.3l0.5,0.3l-0.3,0.7l-0.3,1.9l0.3,0.3l0.3,0.7l0.1,0.4l0.4,1.5l0.3,1.8l1.3,0.6l0.9-0.5l0.2-0.2l2.4-2.4l0.6-0.5l0.1,0.8v0.3
		l0.5-0.4l0.5-0.3l0.6-0.7l0.5-0.6l1.9-1.6l0.1-0.5l0.2-0.7l0.8,0.6l0.1,0.2l0.2,0.4l0.4-0.4l0.6-1.8l1.2-1.7l0.4-0.3l0.7,0.1
		l0.8,0.3l0.3-0.8L221.7,265L221.7,265z M205,258.3l0.5-0.2l0.2-0.6l-1.8-0.5l-1.1,0.1h-0.5l-0.7-0.3l0.3-0.6l0.2-0.4l-0.4-0.1
		l-0.9-0.4l-0.9-1.8l-0.9-0.3l-0.2,1l0.2,0.5l-1,0.7l-0.5-0.2l-0.4-2.5l-1.3-1.7l-0.9-0.3l-0.4-0.1v0.3l-0.4,0.7l-1.3,0.6l-0.5,0.1
		v-0.5l-0.2-0.6l-0.5,0.3l-1.5,0.4h-1.2l-0.9,0.2l-1.3-0.6l-0.9,0.1l-1.4,2.1l-0.5,1.5v0.3l0.2,2.3l0.1,2.7l0.3,0.5l0.5,0.3l1.3,0.1
		l0.4-0.1l0.9,0.1l0.7-0.1l2.2-0.2l0.8-0.2l1.8,0.1h2.4l2.1-0.5l0.6-0.1h0.7l2.1-0.3l3.5-0.7L205,258.3L205,258.3z M194.7,249
		l-2.2-3.9l-1.4-2.1l-1-0.2l-0.4,0.2l-0.2-0.3l-1-1.5l0.1,0.7l-0.3,0.2l-0.9,0.3l-1.8,2.5l0.5,1.2l0.7,1l0.3,1.5l1.5,1.6l0.5,0.2
		l1.8,0.3l1.1-0.3l1.2-0.2L194.7,249L194.7,249z M192.3,220.4l-0.6,0.3l-0.4,0.7l-0.6,1.3l0.2,1.4l0.7,0.7l0.1-0.5l0.3-0.5l0.5-0.5
		l1-1.8l-0.1-0.5L192.3,220.4L192.3,220.4z M194.3,206.3l-1.5-1.4l-0.3,0.3l0.2,1.7l0.4,0.3L194.3,206.3L194.3,206.3z"/>
	<path id="XMLID_482_" d="M208.8,185l-2,1.7h-0.7l0.1-0.6l-0.6-0.7l-0.5-0.4l0.2-1.5l0.8-2l-0.2-0.6v-0.7l0.6-1l1.6-0.8l0.9,0.1
		l1.4-0.8l1.2-0.3h0.3l1.4,0.5l0.6-0.1l0.4-0.2l0.1,0.5l-0.1,0.7l0.8,0.7l1.1,0.3l1.9,0.7l2.3,0.5l0.8,0.1l1.9,0.7l0.9,0.6l1.3,0.3
		l4.1,2.8l1.3,0.8l0.6,0.5l2.1,2.6l0.5,1.1l-0.7,0.4h-0.8l-0.2,0.8l0.2,0.8l0.1,0.4l1.6,1.2l1.3,1l1.9,3.5l-0.3,0.5l-0.7-0.5l-1-0.7
		l-0.7-0.3l-1.3-0.8l-0.4-0.4l-2-2.2l-2.2-0.7l-2.6,1.4l-0.6,0.7h-1.1l-0.3-1.4l0.3-0.8l-0.5-1l-0.1-1l0.2-2.2l0.1-0.7l-0.1-1.1
		l-0.4-1.2l0.1-1.3l-0.7-0.6l-1.5-0.8l-1.5,0.1l-1.1,2.8l-1,1.4l-0.8,0.4l-3.2,0.8l-1.5,0.2l-0.7-1l0.1-0.3l-0.2-0.6l-0.4,0.4l0.1,2
		v0.4h-0.5l-1.1,0.1l-1.4,0.3l-2.3,0.8l-0.7-0.6l1.6-1.8l1.7-1.3v-0.5l0.1-1.1L208.8,185L208.8,185z M215.7,184.5l-0.2-0.4h-0.8
		l-0.4,1.5l1,0.5l0.3-0.5L215.7,184.5L215.7,184.5z"/>
	<polygon id="XMLID_481_" points="205.2,169.2 206.4,169.3 206.5,169.3 208,169.1 210.3,168.9 211.5,169.1 213,169.8 213.8,170 
		214.6,170.2 216.2,171 217.3,172.1 217.8,172.4 218.5,172.6 218.5,173.8 217.8,173.8 216.9,173.7 216.3,173.2 215.1,173.2 
		214.3,173.7 210.7,174 209.8,174.3 206.8,174.7 204.4,174.4 202.5,174.2 201.9,173.9 201.4,173.5 201.3,172.5 201.5,172.1 
		202.4,170.3 203.7,169.7 	"/>
	<polygon id="XMLID_480_" points="218.7,174.1 221,174.4 221.7,174.2 222.1,173.7 222.6,173.8 222.4,174.3 222.4,175.3 222.2,175.9 
		221.7,175.8 220.4,175.1 	"/>
	<path id="XMLID_479_" d="M223.6,194.5c-0.2,0.4-0.6,0.8-0.9,1.1c0,0-0.2,0-0.2-0.1c-0.3-0.3-0.5-0.8-0.9-1v-0.1
		c0-0.2,1-0.8,1.3-0.8C223.3,193.8,223.4,194.1,223.6,194.5z"/>
</g>
<g id="XMLID_434_">
	<path id="XMLID_458_" d="M310.3,326.8c2.2-24.8-2.7-49.3-4.6-73.9c-4.1,1.1-8,2-10.5-2.6c6-5.3,6.5-0.5,8.8-10.4
		c-2.3,1.1-5.4,2.3-7,1c0.7-2,4.5-4.2,5.8-1.5c1.1-6.3-9.9-1.7-13.6-5c-4.8-4.3-0.6-19.6-3.3-20.5c-3.2,9.2-1.8,25.5,3.7,34
		c-5.6-6.8-8.2-17.3-8.7-25.9c-0.2-2.9,4.2-19.9,5.4-17.6c-4.8-9.4-13.8-18.2-9.2-28.1c-7.7,4.1-1.3-13.4-1.3-14.6
		c0-4.2-4.9-1.4,3.1-6.2c-5.5-1.2-9.3-2.1-3.5-5.8c-8.4-5.2,5.5-6.8,5.3-10.5c-2.7-0.1,0.2-2.4,1-4.3c0.1,2,1,2.3,2.8,1
		c2.8,1.5,10.5-23.9,17.3-25.5c-2.2-4.6-2.7-9.5-1.7-14.5c1.4,4.1,1.3,2.1,1.4-1.7c1.3,1.2,5,0.3,6.2-0.1c-2.1,2.3,1.4,15.6,0.6,1.6
		c7.7,19.8,7.5-0.4,19-0.3c-1.9,1.4-2.2,2.5-0.8,3.2c3.1-3.9,4.7-6.2,2.5-1.1c7-3.1,30.6-11.8,30.6-12c8.2-1.3,13.6-3.6,19.7-5.8
		c-2.7,0.7-3.3,2-1.6,3.9c0.8-1,24.5-9.3,25.1-8c-1.6,0.7-15.3,4.9-12.8,6.9c7.8-4.7,7.2-4.3,0.9,2c1.9,1.4,2.7-0.3,5.2-0.8
		c-2.1,6.1,2.5,0.1,2.3,0.1c-0.3,11.4,16.8-1.1,19.1,6.8c-2-0.5-8-0.3-9.6,1.6c7.5,2.5-0.8,0.5-1.5,1.9c4,3.4,11.5,5,16.1,7.7
		c-3.6,7-10.9-7-2.9,2.7c2.3,2.8,14.7,9.8,7,7c2.2,2.3,17.4,16.5,15.3,18.6c-14.9-14.2,1.3,5.2-6.4-1.3c0.4,3,0.2,13.2,1.7,14.4
		c1.6-3.3,6.7,15.3-1.4,12.7c1.3,3.3-2.6,8.8-2,10.5c21.2,4,19.9,5.9,14.6,25.3c-4.7,17.1-15.2,21.2-28.4,20.8
		c3.9,3.7,13.7,10.1,9.5,12.4c7.1,4.1,6.5,9.4,1.9,17.4c-7-9.2-12-14-21.2-17.4c2.3,10.9,3.5,20.1,9.2,8.2
		c3.4,10.4,8.9,5.8,11.7,21.8c-0.7-2.9-2.6-4.2-5.5-3.9c-0.3,2.8,0.8,4.9,3.4,6.1c0-0.5,0-1-0.1-1.4c3.7,3.6,6.7,7.6,10.1,11.4
		c-0.9-3.5-1.9-7-2.8-10.5c2.4-0.8,3.2,9.6,2.5,1.1c1,1.5,3.2,12.6-1.8,11.4c1.3,2.6,0.8,5.1,2,8c-0.5,0.2-3.2,1.4-3.7,1.2
		c2.2-0.3,3,0.7,2.3,2.8c-3.8-7.4,0.4,14.6-5.3,5.3c-1.3,5,2.7,1.7-0.3,5.9c-4.2,5.9-15.5,11.2-18.2,16.6c-1.9,3.7-2.2,7.5-1.6,11.2
		c1.8,11.6,12.6,22.9,13.8,32.9C425.6,346,309.4,337.8,310.3,326.8C311.7,311.6,310.1,329.2,310.3,326.8z M412.8,269.6
		c1.6-2.1,0.3-3.2-4-3.4c-0.4,2.1,0.2,3.8,1.9,5c-0.3-3.5,9.7,3.7,11.5,5.1c1.7-0.9,1.7-2.4-0.1-4.4c2.9-1.5,4.5,0.8,4.9,7
		c1.6-11.4,1.8-1.9,5.1-3.9c-9.3-20.2-1.3-0.9-0.5-6.5c-5.1-0.6-1.6,1.9-1.6,4.5c-4.2-4-6.9-12.9,2.8-4.9c-0.6-5-9.4-16.1-13.8-18.8
		c-4.1-2.5-20.2-2.7-16.1,3.1c-0.4-2.8,1-3.7,4.2-2.7c0.1,3.5-6-4.2,0.1,3.3c3.4-0.1-9-0.5-7.9-1.1c2.9,3.7,7.8,13,10.2,9.4
		c0.7,5.3,2.6,3.5,6.9,6.9c-3.1,0.4,0,0.4-0.1,3.3C415.1,270.8,413.9,270.2,412.8,269.6C413.1,269.1,413.9,270.2,412.8,269.6z
		 M358.2,212.4c-10.8-1.3-17.7-2.6-22-13.2c-4.9,5.8-19.4-3.7-25.5,3.5c-3.5,4.1-1.9,14.5-0.9,19.5c1.2,6,4.2,17.6,11.3,21
		c-2.3,5-0.7,5.7,3.9,3.5c-2.5,4.8,2.4,0.7,3.5-0.5c3.8,7.5,4.6-1.2,8.1-3c-1.3,16.1,3.5-2.1,6.7-1.5c-0.7,4.8,1.6,4,0.9,7.9
		c6.3-6.1,12.4-8.7,5.2-11.8c1.3-3.9,6.1-4.4,4.7-7.4c-0.5,0.7-1.1,1.3-1.7,1.9c0-7.9,11.8-9.2,16.8-13.7c-8.2-4.3-4.9-3.3-15.5,0.1
		C353.2,216.5,354.2,212.1,358.2,212.4C355.8,212.1,355.8,212.2,358.2,212.4z M391.3,257.9c1.1,0.8,2.2,1.6,3.3,2.4
		c-0.6-5.3,0.3-8.6,5.3-10.5c-1.4-1.5-12.5,0.4-14.3,0.9c-5.6,1.5-12.8,7.8-12,7.5c-2.4,1-3.3,2.7-2.9,5.3c3.7-1.9,4.1,2.5,3.6,4.8
		c2.3,0.3,3.2-0.6,2.8-2.8c1.6,0.4,1.8,3.6,2,5.1c1,0,1.3-0.7,0.9-2.2c0.4,1.2,8.4,4.5,6.7,0.5c0.6,0.3,11.5,0.7,10.4,5.6
		c3.3-7-5-1.6,0.9-6.9c-3.1,0.3-1.6-0.8-2.3-3.7C387.8,270.4,392.4,250.9,391.3,257.9C392.5,258.8,391.4,257.2,391.3,257.9z
		 M445.4,185.5c-2.5-1.4-17.1,13.7-9.3,19.1C444.9,210.7,445.5,188.9,445.4,185.5C445.3,185.4,445.5,190.6,445.4,185.5z
		 M376.4,239.6c0.1-4.1,5.3-4.3,6.8-2.8c1.9-2.8-3.4-2.8,0.4-3.4c-0.6-3-1.7-3.6-3.4-1.8c3.5-6.1-1.7-1.9-3-6.6
		c-2.1,5.9-0.6,3.5-5.7,3.3c-0.4-0.4-2.8,9.5-2.9,13.6c0.3,0,3.9-7.8,4.7-6.4C375.4,235.3,376.4,236.7,376.4,239.6
		C376.4,238.6,375.7,238.2,376.4,239.6z M302.6,233.3c4.3,0.7,1.3-10.8-0.1-13.3C294.2,223.2,302.5,230.4,302.6,233.3
		C303,233.4,302.6,232.4,302.6,233.3z M330.9,185.4c4.4,5.6-15.5-16.9-9,1.8C324.9,186.5,327.9,185.9,330.9,185.4
		C331.1,185.6,329.5,185.7,330.9,185.4z M435.9,178.9c1,0.5,6.1-3.2,6.2-4.6c-1.1-2-2.9-3.1-5.3-3.3
		C436.4,173.6,436.2,176.2,435.9,178.9C436,178.9,436.1,176.4,435.9,178.9z M349.9,246.7c0.2,2.1,1.6-0.4,2.5,1.2
		c-1.8,0.4-2.2,1.3-1.3,2.7c-0.1,0.1,11-5.2,4.1-7.5C354.6,246,352.8,247.2,349.9,246.7C349.9,247,351,246.5,349.9,246.7z
		 M397.9,259.9c-2.7,3.2,2.3,5.2,2.6,10.4c2.3-0.6-0.9-1.6,3.3-2.4C401.7,265.6,399.9,262.5,397.9,259.9
		C397.3,260.6,399.1,261.4,397.9,259.9z M407.7,227.8c-2.5,2.3,0.3,4.9,2,6.1C412,233,411.4,231,407.7,227.8
		C407.5,227.9,408.5,229.7,407.7,227.8z M366.9,216.3c2.4,0.9,3.8,0.3,4.1-2.2C368.8,213.3,367.5,214.2,366.9,216.3z M434,264.1
		c2-1.7,0.5-3-4.6-3.9C430.4,262,432,263.3,434,264.1C434.2,263.9,432.1,262.6,434,264.1z M331.1,175.9c1.9-0.1,3.8-0.2,5.8-0.3
		C334.7,173.9,332.4,174.1,331.1,175.9z M289.1,133.7c1.9,0.9,2.7-0.6,2.4-4.4C289.5,128.3,288.7,129.7,289.1,133.7
		C289.3,133.7,289.7,132.1,289.1,133.7z M396.5,238.3c1.5,2,3,0.8,4.5-3.8C399.5,235.8,398,237,396.5,238.3
		C396.6,238.5,397.9,237.1,396.5,238.3z M389.1,238.3c1.9-1,1-2.2-2.8-3.6c0.2-0.2-1.5,2.7-1.4,2.2
		C386.3,237.3,387.7,237.8,389.1,238.3C389.4,238.2,387.7,237.8,389.1,238.3z"/>
	<path id="XMLID_457_" d="M287.8,238.3c3.2,0.6,5.6,1.1,5.6,4.2c0,0.8-0.4,1.7-0.6,2.5c-0.9-0.3-2.2-0.4-2.6-1
		C289.2,242.3,288.7,240.5,287.8,238.3z"/>
	<path id="XMLID_456_" class="st0" d="M426.1,169.3c-3.4,0.2-7,0.5-10.5,0.7c-3.4,0.2-6.7,1.7-10.5,1c0-0.1-0.2,0.4-0.2,0.5
		c-1.2-0.3-2.2-0.4-3.2-0.8c-2.5-0.8-5.4,0-6.6,1.5c-2.8,3.5-6,1.2-8.9,1.2c-3.7,0-7.3-1-11-1.5c-4.6-0.5-9.3-1.4-13.9-1.2
		c-7.7,0.5-15.3,1.6-23,2.7c-3.3,0.5-6.6,1.4-9.9,2.2c-0.4,0.1-1.2,0.3-1.2,0.4c-0.1,2.3-1.6,3.4-3.2,4.5c-0.9,0.6-1.7,1.4-2.6,1.9
		c-6.3,3.2-11.9,7.3-17,12.2c-1.7,1.6-3.2,3.5-4.6,5.3c-0.4,0.5-0.3,1.4-0.6,2.4c-1.6,0.7-3.2-0.3-3.4-2.7c-0.4-4.5,2.6-6.9,5.6-9.1
		c4-3,8.4-5.6,12.5-8.4c0.6-0.4,0.7-1.6,1-2.4c0.7-1.6,1.5-3.3,2.2-4.9c-0.2-0.1-0.3-0.2-0.5-0.3c-0.4,0.4-0.8,0.8-1.7,1.5
		c0.1-1.4,0.1-2.4,0.2-3.4c0-0.2,0.1-0.4,0.1-0.6c-0.4-2.1-1-4.3-1.2-6.4c-0.1-1.1,0.5-2.2,0.7-3.4c0.1-0.8-0.2-1.7,0-2.5
		c0.5-3.9,3.6-6.5,5.1-9.9c0.1-0.2-0.1-0.6-0.2-1c2.1,0,3.6-0.7,3.3-3.2c0-0.3,0.3-0.8,0.6-1c3.2-2.2,6.9-3.1,10.6-4.1
		c1-0.3,2-0.6,2.8-1.2c2.7-1.7,5.3-3.6,8.1-5.2c1-0.6,2.4-0.3,3.4-0.8c3.8-1.6,7.8-1.3,11.8-1.2c1,0,1.9-0.1,2.9-0.4
		c4.2-1.2,8.2-0.6,12,1.4c1.7,0.8,3.5,1.4,5.3,1.9c0.6,0.2,1.2,0.1,1.8,0c1.2-0.2,2.4-0.6,3,1.1c0.1,0.4,0.8,0.6,1.3,0.8
		c1.8,0.9,3.8,1.8,5.5,2.9c1.1,0.7,1.8,2.2,3,2.8c1.1,0.5,2.5,0.4,4,0.5c0,0,0.1,0.6,0.4,1.5c0.6-0.5,0.9-0.8,1.5-1.3
		c0.1,0.8,0.2,1.5,0.3,2.5c0.7,0.2,1.9,0.1,1.8,2c0,1.6,1.9,2.6,3.4,3.4c1.3,0.8,2.5,1.8,1,4c2.1,0.1,3.7,0.1,5.6,0.1
		c0.1,0.2,0.4,0.7,0.4,0.7c1.6,0,3.2,1.3,4.4,1.2C423.7,161.2,423,164.6,426.1,169.3z"/>
	<path id="XMLID_453_" class="st0" d="M356.6,215.3c-2.3-0.2-2.7,1.6-3.2,2.6c-0.9,0.1-1.5,0.1-2.1,0.2c0.3,1.1,0.6,2.3,0.9,3.4
		c0.2-0.1,0.4-0.1,0.6-0.2c0.2-2,1.7-2.9,3.8-2.7c1.1,0.1,2.7,0.9,3.6-0.8c0.2-0.3,1.3-0.1,2-0.7c0.7,0.3,1.4,0.5,2.2,0.8
		c-0.3,0.6-0.6,1-0.8,1.5c1.4,0.7,2.7,1.4,3.7,2c-0.6,0.6-1.4,1.3-2.2,2c-0.3,0.3-1,0.6-1.1,0.5c-3-2.2-4.8-0.6-6.4,2.3
		c0.8,0.2,1.6,0.4,2.6,0.7c-1.2,1.3-2.3,2.5-3.5,3.8c-1.8-2.6-3.2,2.2-5,0.2c-0.3,0.9-0.7,1.7-0.9,2.6c-0.1,0.5,0,1,0,1.5
		c0.3-0.3,0.6-0.6,0.9-1c0.2-0.3,0.5-0.6,0.8-0.9c0.3,0.6,0.5,1.2,0.9,2.1c-1.6,0.6-3.4,1.2-5.4,1.8c0.4,0.4,0.7,0.6,0.8,0.7
		c-0.3,0.9-0.6,1.8-0.9,2.7c0.1,0.1,0.2,0.1,0.4,0.2c0.3-0.4,0.6-0.9,0.9-1.5c1.1,0.8-0.4,3.7,2.3,2.8c0,0.7-0.2,1.5,0.1,1.9
		c1.2,1.6-0.3,2.3-1.1,2.8c-1,0.6-2.5,0.6-3.4,1.3c-1.6,1.2-2.9,2.7-4.3,4c0.1-0.6,0.3-1.6,0.5-2.7c-0.4-0.8-2.9,0.2-1.8-2
		c0.4-0.9,0.3-2,0.5-3.1c-0.2,0-0.5-0.1-0.7-0.1c-0.4,1.6-0.8,3.2-1.3,4.9c-0.7-0.5-1.7-1.2-2.6-1.8c0,1.1,0.4,2.4,0,3.4
		c-0.3,0.8-1.4,1.3-2.6,2.3c0.2-2.9,0.4-5.1,0.6-7.2c-0.7,0.4-1.4,0.7-2,1c2.1,4.1-3.7,2.5-3.5,5.3c-0.3,0-0.5-0.1-0.8-0.1
		c-0.5-1.1-1.1-2.1-1.7-3.2c-0.7,0.7-1.5,1.7-2.4,2.4c-0.5,0.3-1.4,0.1-2,0c0.2-0.5,0.5-1,1-2c-1.6,0.7-2.8,1.3-4.1,2
		c0.1-0.6,0.2-1,0.4-1.6c-0.6-0.1-1.2-0.3-1.6-0.4c0.6-1.2,1.1-2.3,1.6-3.3c-0.1-0.1-0.2-0.1-0.4-0.2c-0.4,0.5-0.7,1-1,1.4
		c-0.7-0.6-1.3-1-1.9-1.5c-1.6-1.6-1.4-4-2.1-6.2c-0.8-2.3-1.3-4.7-1.9-7c-0.9,0.5-1.5,0.9-2.1,1.3c-0.3-0.8-0.6-1.5-0.9-2.3
		c-0.2-0.6-0.3-1.3-0.4-1.9c0.7-0.2,1.3-0.4,1.9-0.6c0-0.2-0.1-0.3-0.1-0.5c-0.8-0.2-1.5-0.3-2-0.4c-0.1-1.1-0.1-1.9-0.2-2.8
		c0-0.4-0.1-0.8-0.1-1.2c0-0.6,0-1.2,0-1.8c-0.1-0.8-0.2-1.6-0.3-2.3c-0.1-1.8-0.2-3.5-0.3-5.3c0-0.6-0.1-1.3,0-1.9
		c0.3-1.6,1.4-3.3,1-4.6c-0.7-2,0.1-3.4,1.3-4.1c1.3-0.7,3.1-0.6,4.7-0.6c1.4,0,3,0.8,4.1,0.4c2.1-0.8,4.1-0.2,6.1-0.2
		c0.7,0,1.5-0.6,2-0.3c1.6,0.9,3.2,1.7,4.7,2.5c1-1.2,1.8-2.1,2.7-3.2c0.5,1.2,0.9,2.3,1.4,3.4c2.4,5.9,7.3,7.9,13.1,8.7
		C351.8,214.8,354.2,215,356.6,215.3z M350.3,242.4c-2.7-0.2-2.7-0.2-1.6,3.8C349.3,244.8,349.8,243.7,350.3,242.4z"/>
	<path id="XMLID_452_" class="st0" d="M405.2,215.7c-0.2-0.1-2.5-1.6-3.8-1.6c-3.7,0-4.8,0.8-7.2,1.6c-0.6,0.2-1.5,0.5-2.1,0.3
		c-1.5-0.5-8-2.2-9.9-1.5c-5,0.1-2.9-5.5-1.6-7.5c3.3-4.9,5.9-10.2,8.2-15.7c1.2-2.9,5.3-3.6,7.3-1.1c3.6,4.4,7.2,9,10.3,13.8
		c2.6,4,3.2,6.9,5.2,11.3C412,216.4,408.3,217.4,405.2,215.7z"/>
	<path id="XMLID_451_" class="st0" d="M410.2,271.4c1.1,0.6,2.2,1.1,3.4,1.8c0-0.7,0-1.5,0.1-2.3c-0.5-0.1-1-0.1-1.5-0.2
		c0-0.2,0-0.3,0-0.5c0.5-0.1,1-0.1,1.6-0.2c-1.2-1-2.4-1.9-3.8-3c-0.4,0.2-1.1,0.5-1.9,0.8c1.9-2.2-0.9-3-1.1-4.6
		c-0.6,0.8-1,1.5-1.6,2.4c-0.4-0.7-0.8-1.2-0.9-1.3c0.4-1.1,0.7-1.9,0.8-2.2c-2.8-1.6-5.3-3.1-8.1-4.7c2.1-1.3,0.6-2.3-0.3-3.4
		c2.2-1.2,1.7,1.9,3.1,1.2c1.6,0,3.1-0.1,4.6-0.1c-0.5-0.6-1.2-1.5-2.2-2.7c1,0.1,1.6,0.1,2.1,0.2c0-0.2,0-0.5,0-0.7
		c-1.3,0.1-2.6,0.2-3.9,0.4c-0.1,1-0.2,1.7-0.3,2.3c-0.5-0.8-1.1-1.4-1.5-2.2c-0.1-0.2,0.5-0.9,0.9-1c2.5-0.4,5-0.7,7.6-1
		c0.1-0.7,0.1-1.5,0.3-2.6c3,1.2,6.7,1.7,8.5,3.8c3.4,3.8,8.5,6.5,9.3,12.4c0,0.2,0.1,0.4,0.3,0.5c1,0.6,2.2,1,2.9,1.9
		c0.7,0.8,1,2.1,1.2,3.6c-1.8-1.5-3.6-3-5.3-4.4c-2.9,4.3-0.1,6.6,2.6,9.2c0-1.7-3.1-2.9-0.8-4.6c0.5-0.4,1.6,0.1,2.4,0.2
		c0,0.2-0.1,0.5-0.1,0.7c-0.6-0.1-1.3-0.2-2.2-0.4c1,2.2,1.9,4.1,2.8,6c-0.2,0.1-0.4,0.2-0.5,0.3c-0.4-0.6-0.8-1.1-1.2-1.8
		c-0.3,0.3-0.6,0.7-0.9,1c-0.4-0.6-0.7-1.3-1.4-2.5c-0.3,2.4-0.6,4.2-1,6.7c-1.6-2.8-2.9-5-4.2-7.1c-0.2,0.1-0.4,0.2-0.6,0.3
		c0.3,1.2,0.6,2.5,0.9,3.7c-0.3,0.2-0.6,0.4-0.9,0.7c-1.5-1.2-3.1-2.4-4.9-3.8c0,0.9,0,1.3-0.1,2.1
		C412.9,274.5,411.6,272.9,410.2,271.4L410.2,271.4z"/>
	<path id="XMLID_449_" class="st0" d="M389,259.9c0.1-0.7,0.3-1.5,0.5-3.1c-1,1.6-1.7,2.6-2.2,3.6c-0.1,0.1,0.6,0.9,1,0.9
		c1.2-0.1,1.2-0.1,0.9,1c-0.1,0.4,0.1,0.8,0.2,1.2s0.4,1.1,0.3,1.2c-1.6,1.1-0.7,1.7,0.3,2.4c0.3,0.2,0.3,0.7,0.4,1.2
		c1-0.8,1.8-1.5,3-2.4c0.3,1.2,0.5,1.8,0.5,2.4c0,0.5-0.2,1-0.3,1.5c0.6-0.1,1.2-0.1,2-0.2c-0.9,0.8-1.8,1.6-2.5,2.2
		c1,0.4,2.3,0.6,2.4,1c0.2,1.1-0.1,2.2-0.7,3.4c0.6-2.7-1.2-3.5-3.1-4c-0.4-0.1-1.1,0.8-1.4,1.1c-0.4-0.8-1.1-1.8-1.7-2.8
		c-0.1,0-0.2,0.1-0.4,0.1c0.1,0.7,0.1,1.3,0.3,2.2c-1.4-0.7-2.5-1.3-4-2.1c0.4,0.8,0.6,1.4,0.9,2c-0.1,0.1-0.3,0.3-0.4,0.4
		c-0.5-0.5-1-1-1.8-1.8c-1,0.2-3.2-1.9-4.2,1.5c-0.4-0.9-0.6-1.6-1-2.6c-0.1,0.9-0.2,1.5-0.3,2.1c-0.2,0-0.3,0.1-0.5,0.1
		c-0.1-0.6-0.1-1.2-0.3-1.7c-0.3-1-0.6-2.1-0.9-3.1c-0.1-0.1-0.5-0.1-0.8-0.2c-0.1,0.6-0.2,1.3-0.3,2.2c-0.6,0.1-1.4,0.3-2.5,0.6
		c0.2-1,0.3-1.6,0.5-2.2c-0.5-0.1-1-0.2-1.8-0.4c0.7-0.4,1.2-0.7,1.5-0.9c-0.3-0.9-0.6-1.7-0.9-2.7c-1,0.5-1.9,1-2.8,1.4
		c-1.7-3.4-6.1-7-6.5-6.9c-18.1-19.6,2.2-6.3,6.9-5.7c2.3,0,8.2-1,12.1,1.3c2-3.8,6.1-1.7,9.3-2.6c0.4-0.1,1.1,1.1,1.6,1.7
		c1.2-2.4,3.6-2.9,5.3-1.2c-1.4,0.5-2.8,1-4.2,1.5c-0.4,0.8-0.8,1.6-1.1,2.4c0.5,0.3,1.2,0.7,1.8,1.1c-0.4,0.6-0.8,1.3-1.3,1.7
		c-0.9,0.7-1.4,1.2-0.5,2.3c0.2,0.2,0.1,0.7,0.2,1.3C391.1,261.5,390.3,260.8,389,259.9z"/>
	<path id="XMLID_448_" class="st0" d="M442.2,188.9c0.1,5,0.4,10-1.5,14.8c-1.1,2.7-3.2,4.4-6,5.1c-0.5,0.1-1.5-0.6-1.7-1.1
		c-0.8-2-1.5-4-1.9-6.1c-0.4-1.6-0.1-3,1.4-4.3c3.2-2.7,6.1-5.8,9.2-8.7C441.8,188.7,442,188.8,442.2,188.9z"/>
	<path id="XMLID_447_" class="st0" d="M374.5,242c-0.7-1.4-1.4-2.7-2.1-4c-0.3,0-0.6,0-0.9,0c1.7,2.9-1.1,1.6-1.5,2.6
		c-0.4-0.8-0.6-1.4-0.9-2c-0.2,0-0.4,0-0.6,0c-0.4,1.8-0.7,3.7-1.1,5.5c-0.2,0-0.4,0-0.6,0c0-1.8,0.1-3.6,0.2-5.4
		c0-0.4,0.3-0.8,0.3-1.3c-0.1-4.2-0.1-4.2,3.9-5.1c-0.5-0.5-0.8-0.8-1.5-1.5c1.2,0,2.2,0,3.1,0.1c0.4,0.1,0.8,0.6,1,0.8
		c0.4-1.2,0.8-2.4,1.5-4.2c0.4,1.5,0.6,2.2,1,3.5c0.3-0.9,0.5-1.3,0.6-1.8c1.1,0.5,2.1,1,3.2,1.4c-0.5,0.9-1.1,1.9-1.9,3.3
		c0.8-0.5,1.2-0.8,1.5-1c0.6,0.9,1.1,1.7,1.8,2.8c-0.3,0-0.8,0.1-1.3,0.2c-0.1,0.2-0.2,0.3-0.3,0.5c0.7,0.4,1.4,0.8,2.2,1.2
		c-0.2,0.2-0.5,0.8-0.9,1.4c-0.7-0.7-1.4-1.4-2.5-2.5c0.2,1.3,0.3,2.1,0.4,3.1c-1.5,0-3-0.1-4.5-0.1
		C374.5,240.2,374.5,241,374.5,242z"/>
	<path id="XMLID_446_" class="st0" d="M329.9,188.9c-1.4,0.3-2.9,1-4.2,0.8c-1.7-0.3-3.2-0.4-4.6,1c-0.1-0.2-0.1-0.4-0.2-0.6
		c1.9-1.7,3.7-3.5,5.7-5c1.4-1,4.7,0.5,4.8,2.2c0,0.7-0.7,1.4-1,2.2C330.2,189.3,330,189.1,329.9,188.9z"/>
	<path id="XMLID_445_" class="st0" d="M432.8,182.4c0.3-2.4,0.5-4.8,0.9-7.8c1.4,0.5,2.8,0.8,3.9,1.5c1.9,1.2,1.8,2.2-0.2,3.5
		c-1.4,0.9-2.7,2-4,3.1C433.2,182.6,433,182.5,432.8,182.4z"/>
	<path id="XMLID_444_" class="st0" d="M348.5,248.9c1.1-0.2,2.3-0.3,3.5-0.5c0.4-0.8,1.1-1.9,1.7-3c0.3,0.1,0.5,0.2,0.8,0.3
		c-0.4,2.2,12.2,14.3,14,15.7c6.9,5.2-16-8.7-16.2-8.8c-1.4-1.1-1.4-1.1-2.6,0.3c-0.2-0.6-0.4-1.1-0.4-1.4c0.6-0.4,1.2-0.8,1.7-1.2
		c-0.1-0.2-0.2-0.4-0.3-0.6c-0.7,0.1-1.3,0.2-2,0.3C348.5,249.5,348.5,249.2,348.5,248.9z"/>
	<path id="XMLID_443_" class="st0" d="M395.6,261.9c1.1,1.5,1.2,4,3.9,4c0.1,0,0.3,0.6,0.4,1c0.1,0.6,0.1,1.2,0.4,1.7
		c0.2,0.5,0.7,0.8,1.1,1.3c-0.8,0.1-1.6,0.3-2.4,0.4c0,0.4-0.1,1.1-0.1,1.7c-0.2,0.1-0.5,0.1-0.7,0.2c-0.2-3.4,0.6-7.3-4.5-8
		C394.5,263.2,395,262.6,395.6,261.9z"/>
	<path id="XMLID_442_" class="st0" d="M410.2,271.4c-0.7-0.2-1.5-0.4-2.3-0.6c0,0.6,0.1,1.4,0.2,2.3c-2.5-0.8-1.3-3-1.8-4.9
		c1.6,0.8,3,1.5,4.5,2.2C410.7,270.5,410.4,271,410.2,271.4L410.2,271.4z"/>
	<path id="XMLID_441_" class="st0" d="M405.2,230.4c0.8,1.9,1.6,3.8,2.5,5.8c-0.2,0.1-0.3,0.1-0.5,0.2c-0.8-0.6-1.6-1.2-2.7-2
		c0.1-0.9,0.2-2.2,0.3-3.6C404.9,230.7,405,230.5,405.2,230.4z"/>
	<path id="XMLID_440_" class="st0" d="M365.1,219.2c0.6-2.1,1.8-2.9,4-2.2C368.9,219.5,367.5,220.1,365.1,219.2z"/>
	<path id="XMLID_439_" class="st0" d="M431,266c-1.8-1.5-4.6-2.2-4.6-3.8c1.1,0.7,3.1,2,5.1,3.3C431.3,265.6,431.1,265.8,431,266z"
		/>
	<path id="XMLID_438_" class="st0" d="M330.1,179.5c1.2-1.8,3.5-2,5.7-0.3C333.8,179.3,331.9,179.4,330.1,179.5z"/>
	<path id="XMLID_437_" class="st0" d="M394.2,240.7c1.4-1.2,2.8-2.4,4.4-3.7c-1.4,1.5-2.6,2.9-3.9,4.2
		C394.5,241.1,394.3,240.9,394.2,240.7z"/>
	<path id="XMLID_436_" class="st0" d="M387,240.7c-1.4-0.5-2.8-1-4.2-1.5c0-0.1,0-0.3,0.1-0.4c0.4,0,0.8,0,1.3,0
		c-0.2-0.6-0.3-1-0.4-1.5c0.1-0.1,0.3-0.2,0.4-0.3c1.1,1,2.3,2.1,3.4,3.1C387.4,240.4,387.2,240.6,387,240.7z"/>
	<path id="XMLID_435_" d="M350.3,242.4c-0.5,1.2-1,2.3-1.6,3.8C347.6,242.2,347.6,242.2,350.3,242.4z"/>
</g>
<path id="XMLID_433_" d="M207,328.6"/>
<rect id="XMLID_431_" x="63.1" y="322.6" transform="matrix(0.9996 -2.965492e-02 2.965492e-02 0.9996 -10.7023 9.4847)" width="502.6" height="85.9"/>
<g id="XMLID_420_">
	<g id="XMLID_16_">
		<polyline id="XMLID_24_" class="st1" points="559.2,388.3 559.4,394.3 553.4,394.5 		"/>
		<line id="XMLID_23_" class="st2" x1="541.2" y1="394.9" x2="82.1" y2="408.5"/>
		<polyline id="XMLID_22_" class="st1" points="75.9,408.7 69.9,408.9 69.8,402.9 		"/>
		<line id="XMLID_21_" class="st3" x1="69.4" y1="391.1" x2="68.2" y2="350.1"/>
		<polyline id="XMLID_20_" class="st1" points="68,344.3 67.8,338.3 73.8,338.1 		"/>
		<line id="XMLID_19_" class="st2" x1="86.1" y1="337.7" x2="545.2" y2="324.1"/>
		<polyline id="XMLID_18_" class="st1" points="551.3,323.9 557.3,323.7 557.5,329.7 		"/>
		<line id="XMLID_17_" class="st3" x1="557.8" y1="341.5" x2="559.1" y2="382.5"/>
	</g>
</g>
<rect id="XMLID_44_" x="91.8" y="348.3" transform="matrix(0.9996 -2.965493e-02 2.965493e-02 0.9996 -11.3016 10.7794)" class="st4" width="531.9" height="76.2"/>
<g class="st5">
	<path class="st6" d="M111.3,376.6c0.3,8.7-9.7,9-9.7,9l-9.9,0.3l-0.9-29.7l9.9-0.3c0,0,9.9-0.3,10.2,8.4c0.2,6.2-4.8,6.4-4.8,6.4
		C111.1,370.5,111.3,376.6,111.3,376.6z M96.1,368.4l5-0.1c0,0,4.9-0.1,4.8-3.8c-0.1-3.7-5-3.6-5-3.6l-5,0.1L96.1,368.4z
		 M106.3,376.8c-0.1-3.7-5-3.6-5-3.6l-5,0.1l0.2,7.4l5-0.1C101.5,380.7,106.4,380.5,106.3,376.8z"/>
	<path class="st6" d="M141.3,384.4l-5.4,0.2l-1.1-2.4l-11.1,0.3l-0.9,2.5l-5.4,0.2l11-30.1L141.3,384.4z M132.8,377.2l-3.8-8.8
		l-3.3,9L132.8,377.2z"/>
	<path class="st6" d="M164.2,378.8l0.1,5l-16,0.5l-0.9-29.8l5-0.1l0.7,24.8L164.2,378.8z"/>
	<path class="st6" d="M187.5,378.1l0.1,5l-16,0.5l-0.9-29.8l5-0.1l0.7,24.8L187.5,378.1z"/>
	<path class="st6" d="M216.3,382.2l-5.4,0.2l-1.1-2.4l-11.1,0.3l-0.9,2.5l-5.4,0.2l11-30.1L216.3,382.2z M207.8,375l-3.8-8.8l-3.3,9
		L207.8,375z"/>
	<path class="st6" d="M242.9,372.7c0.3,8.7-9.7,9-9.7,9l-9.9,0.3l-0.9-29.7l9.9-0.3c0,0,9.9-0.3,10.2,8.4c0.2,6.2-4.8,6.4-4.8,6.4
		C242.7,366.5,242.9,372.7,242.9,372.7z M227.7,364.5l5-0.1c0,0,4.9-0.1,4.8-3.8c-0.1-3.7-5-3.6-5-3.6l-5,0.1L227.7,364.5z
		 M237.9,372.9c-0.1-3.7-5-3.6-5-3.6l-5,0.1l0.2,7.4l5-0.1C233.1,376.8,238,376.6,237.9,372.9z"/>
	<path class="st6" d="M269.4,380.6l-5.4,0.2l-1.1-2.4l-11.1,0.3l-0.9,2.5l-5.4,0.2l11-30.1L269.4,380.6z M260.8,373.4l-3.8-8.8
		l-3.3,9L260.8,373.4z"/>
	<path class="st6" d="M292.2,375l0.1,5l-16,0.5l-0.9-29.8l5-0.1l0.7,24.8L292.2,375z"/>
	<path class="st6" d="M315.6,374.3l0.1,5l-16,0.5l-0.9-29.8l5-0.1l0.7,24.8L315.6,374.3z"/>
	<path class="st6" d="M344.4,378.4l-5.4,0.2l-1.1-2.4l-11.1,0.3l-0.9,2.5l-5.4,0.2l11-30.1L344.4,378.4z M335.9,371.2l-3.8-8.8
		l-3.3,9L335.9,371.2z"/>
	<path class="st6" d="M370.9,370.2l-19.7,0.6l-0.1-4.9l19.7-0.6L370.9,370.2z"/>
	<path class="st6" d="M396.7,368.2c0.3,8.7-9.7,9-9.7,9l-9.9,0.3l-0.9-29.7l9.9-0.3c0,0,9.9-0.3,10.2,8.4c0.2,6.2-4.8,6.4-4.8,6.4
		C396.5,362,396.7,368.2,396.7,368.2z M381.5,359.9l5-0.1c0,0,4.9-0.1,4.8-3.8c-0.1-3.7-5-3.6-5-3.6l-5,0.1L381.5,359.9z
		 M391.7,368.3c-0.1-3.7-5-3.6-5-3.6l-5,0.1l0.2,7.4l5-0.1C386.9,372.2,391.8,372,391.7,368.3z"/>
	<path class="st6" d="M426.7,376l-5.4,0.2l-1.1-2.4l-11.1,0.3l-0.9,2.5l-5.4,0.2l11-30.1L426.7,376z M418.2,368.8l-3.8-8.8l-3.3,9
		L418.2,368.8z"/>
	<path class="st6" d="M449.6,370.3l0.1,5l-16,0.5l-0.9-29.8l5-0.1l0.7,24.8L449.6,370.3z"/>
	<path class="st6" d="M466.5,360.1l12.8,14.3l-6.5,0.2l-9.5-10.6l-2.7,3.2l0.2,7.7l-5,0.1l-0.9-29.8l5-0.1l0.4,14.6l12.6-15l6.6-0.2
		L466.5,360.1z"/>
	<path class="st6" d="M507.7,373.6l-5.4,0.2l-1.1-2.4l-11.1,0.3l-0.9,2.5l-5.4,0.2l11-30.1L507.7,373.6z M499.1,366.4l-3.8-8.8
		l-3.3,9L499.1,366.4z"/>
	<path class="st6" d="M537.1,372.7l-5,0.1l-15.4-20.8l0.6,21.2l-5,0.1l-0.9-29.8l5-0.1l15.5,20.8l-0.6-21.2l4.9-0.1L537.1,372.7z"/>
</g>
<g class="st5">
	<path class="st7" d="M111.3,376.6c0.3,8.7-9.7,9-9.7,9l-9.9,0.3l-0.9-29.7l9.9-0.3c0,0,9.9-0.3,10.2,8.4c0.2,6.2-4.8,6.4-4.8,6.4
		C111.1,370.4,111.3,376.6,111.3,376.6z M96.1,368.3l5-0.1c0,0,4.9-0.1,4.8-3.8c-0.1-3.7-5-3.6-5-3.6l-5,0.1L96.1,368.3z
		 M106.3,376.7c-0.1-3.7-5-3.6-5-3.6l-5,0.1l0.2,7.4l5-0.1C101.5,380.6,106.4,380.5,106.3,376.7z"/>
	<path class="st7" d="M141.3,384.4l-5.4,0.2l-1.1-2.4l-11,0.2l-0.9,2.5l-5.4,0.2l11-30.1L141.3,384.4z M132.8,377.2l-3.8-8.8l-3.3,9
		L132.8,377.2z"/>
	<path class="st7" d="M164.2,378.7l0.1,5l-16,0.5l-0.9-29.8l5-0.1l0.7,24.8L164.2,378.7z"/>
	<path class="st7" d="M187.5,378l0.1,5l-16,0.5l-0.9-29.8l5-0.1l0.7,24.8L187.5,378z"/>
	<path class="st7" d="M216.3,382.2l-5.4,0.2l-1.1-2.4l-11.1,0.3l-0.9,2.5l-5.4,0.2l11-30.1L216.3,382.2z M207.8,375l-3.8-8.8l-3.3,9
		L207.8,375z"/>
	<path class="st7" d="M242.9,372.7c0.3,8.7-9.7,9-9.7,9l-9.9,0.3l-0.9-29.7l9.9-0.3c0,0,9.9-0.3,10.2,8.4c0.2,6.2-4.8,6.4-4.8,6.4
		C242.7,366.5,242.9,372.7,242.9,372.7z M227.7,364.4l5-0.1c0,0,4.9-0.1,4.8-3.8c-0.1-3.7-5-3.6-5-3.6l-5,0.1L227.7,364.4z
		 M237.9,372.8c-0.1-3.7-5-3.6-5-3.6l-5,0.1l0.2,7.4l5-0.1C233.1,376.7,238,376.6,237.9,372.8z"/>
	<path class="st7" d="M269.4,380.6l-5.4,0.2l-1.1-2.4l-11.1,0.3l-0.9,2.5l-5.4,0.2l11-30.1L269.4,380.6z M260.8,373.4l-3.8-8.8
		l-3.3,9L260.8,373.4z"/>
	<path class="st7" d="M292.2,374.9l0.1,5l-16,0.5l-0.9-29.8l5-0.1l0.7,24.8L292.2,374.9z"/>
	<path class="st7" d="M315.5,374.2l0.1,5l-16,0.5l-0.9-29.8l5-0.1l0.7,24.8L315.5,374.2z"/>
	<path class="st7" d="M344.4,378.4l-5.4,0.2l-1.1-2.4l-11.1,0.3l-0.9,2.5l-5.4,0.2l11-30.1L344.4,378.4z M335.9,371.2l-3.8-8.8
		l-3.3,9L335.9,371.2z"/>
	<path class="st7" d="M370.9,370.2l-19.7,0.6l-0.1-4.9l19.7-0.6L370.9,370.2z"/>
	<path class="st7" d="M396.7,368.1c0.3,8.7-9.7,9-9.7,9l-9.9,0.3l-0.9-29.7l9.9-0.3c0,0,9.9-0.3,10.2,8.4c0.2,6.2-4.8,6.4-4.8,6.4
		C396.5,361.9,396.7,368.1,396.7,368.1z M381.5,359.9l5-0.1c0,0,4.9-0.1,4.8-3.8c-0.1-3.7-5-3.6-5-3.6l-5,0.1L381.5,359.9z
		 M391.7,368.3c-0.1-3.7-5-3.6-5-3.6l-5,0.1l0.2,7.4l5-0.1C386.9,372.2,391.8,372,391.7,368.3z"/>
	<path class="st7" d="M426.7,375.9l-5.4,0.2l-1.1-2.4l-11.1,0.3l-0.9,2.5l-5.4,0.2l11-30.1L426.7,375.9z M418.1,368.7l-3.8-8.8
		l-3.3,9L418.1,368.7z"/>
	<path class="st7" d="M449.5,370.3l0.1,5l-16,0.5l-0.9-29.8l5-0.1l0.7,24.8L449.5,370.3z"/>
	<path class="st7" d="M466.5,360.1l12.8,14.3l-6.5,0.2l-9.5-10.6l-2.7,3.2l0.2,7.7l-5,0.1l-0.9-29.8l5-0.1l0.4,14.6l12.6-15l6.6-0.2
		L466.5,360.1z"/>
	<path class="st7" d="M507.6,373.5l-5.4,0.2l-1.1-2.4l-11.1,0.3l-0.9,2.5l-5.4,0.2l11-30.1L507.6,373.5z M499.1,366.3l-3.8-8.8
		l-3.3,9L499.1,366.3z"/>
	<path class="st7" d="M537,372.6l-5,0.1l-15.4-20.8l0.6,21.2l-5,0.1l-0.9-29.8l5-0.1l15.5,20.8l-0.6-21.2l4.9-0.1L537,372.6z"/>
</g>
<g id="XMLID_77_">
	<path id="XMLID_416_" class="st8" d="M240.5,322.1l-10.9-14.5l0.5,14.9l-3.5,0.1l-0.8-20.9l3.5-0.1l11,14.5l-0.5-14.9l3.5-0.1
		l0.8,20.9L240.5,322.1z"/>
	<path id="XMLID_414_" class="st8" d="M251.7,304.2l0.2,5.2l8.7-0.3l0.1,3.5l-8.7,0.3l0.2,5.2l10.5-0.4l0.1,3.5l-13.9,0.5l-0.8-20.9
		l13.9-0.5l0.1,3.5L251.7,304.2z"/>
	<path id="XMLID_408_" class="st8" d="M283.7,299.6l0.4,12.2c0,0.2,0.1,2.2-0.9,4.3c-1.3,2.9-4,4.6-7.5,4.7s-6.3-1.4-7.8-4.2
		c-1.1-2-1.2-4-1.2-4.2l-0.4-12.2 M269.7,300.1l0.4,12.2c0,0,0.1,1.4,0.8,2.7c0.9,1.6,2.4,2.3,4.6,2.3c2.2-0.1,3.6-0.9,4.4-2.6
		c0.7-1.4,0.6-2.8,0.6-2.8l-0.4-12.2"/>
	<path id="XMLID_259_" class="st8" d="M292.1,302.8l0.2,5.2l8.7-0.3l0.1,3.5l-8.7,0.3l0.2,5.2l10.5-0.4l0.1,3.5l-13.9,0.5l-0.8-20.9
		l13.9-0.5l0.1,3.5L292.1,302.8z"/>
	<path id="XMLID_257_" class="st8" d="M307.1,313.5l3.5-0.1c0.1,1.7,1.6,2.5,3.1,2.5c1.6-0.1,3-1.1,3-2.7c-0.1-1.8-1.7-2.5-3.1-2.5
		c-0.2,0-1.6,0.1-3.2-0.6c-2.2-0.9-3.5-2.8-3.6-5.3c-0.1-3.7,2.9-6.2,6.3-6.3c3.6-0.1,6.5,2.3,6.7,5.9l-3.5,0.1
		c-0.1-1.7-1.6-2.5-3.1-2.5c-1.6,0.1-3,1-3,2.7c0.1,1.7,1.6,2.6,3.1,2.5c0.1,0,1.6-0.1,3.1,0.6c2.2,0.9,3.5,2.8,3.6,5.3
		c0.1,3.7-2.9,6.2-6.3,6.3C310.3,319.4,307.3,317.2,307.1,313.5z"/>
	<path id="XMLID_87_" class="st8" d="M359.5,296.8l-7.6,21.2l-9.1-20.6 M346.7,297.3l4.9,11.3l4.2-11.7"/>
	<path id="XMLID_84_" class="st8" d="M359.8,307.1c-0.2-5.6,4.2-10.4,9.9-10.6c5.6-0.2,10.4,4.2,10.6,9.9c0.2,5.6-4.2,10.4-9.9,10.6
		C364.8,317.1,360,312.7,359.8,307.1z M364.4,306.9c0.1,3.1,2.7,5.6,5.9,5.5c3.1-0.1,5.6-2.7,5.5-5.9c-0.1-3.1-2.7-5.6-5.9-5.5
		S364.3,303.7,364.4,306.9z"/>
	<path id="XMLID_82_" class="st8" d="M406.1,316.1l-3.5,0.1l-0.5-12.8l-5.5,13.1l-3.3,0.1l-6.9-12.9l0.5,13.1l-3.5,0.1l-0.8-20.9
		l3.6-0.1l8.5,16l7-16.5l3.6-0.1L406.1,316.1z"/>
</g>
<rect id="XMLID_41_" x="270.1" y="299.7" width="9.7" height="0.6"/>
<polygon id="XMLID_42_" points="359.7,296.8 347.3,297.3 342.5,297.4 346.1,296.6 359.5,296.6 "/>
</svg>
