<?xml version="1.0" encoding="utf-8"?>
<!-- Generator: Adobe Illustrator 19.0.0, SVG Export Plug-In . SVG Version: 6.00 Build 0)  -->
<svg version="1.1" id="Ebene_1" xmlns="http://www.w3.org/2000/svg" xmlns:xlink="http://www.w3.org/1999/xlink" x="0px" y="0px"
	 viewBox="0 0 540 375.2" style="enable-background:new 0 0 540 375.2;" xml:space="preserve">
<style type="text/css">
	.st0{fill:#FFFFFF;}
	.st1{fill:none;stroke:#FFFFFF;stroke-miterlimit:10;}
	.st2{fill:none;stroke:#FFFFFF;stroke-miterlimit:10;stroke-dasharray:12.2484,12.2484;}
	.st3{fill:none;stroke:#FFFFFF;stroke-miterlimit:10;stroke-dasharray:11.7262,11.7262;}
	.st4{fill:none;}
	.st5{fill:#FFED00;stroke:#FFED00;stroke-miterlimit:10;}
	.st6{font-family:'Droidiga';}
	.st7{font-size:42.5676px;}
</style>
<g id="XMLID_478_">
	<path id="XMLID_485_" d="M174.5,271.5L174.5,271.5h-7.1l0.6-0.9l4.6-10.2l0.2-2.1l-0.8-0.5l-6.5,1.7l-5.9,0.3l-3.1-0.2l-1-0.3
		l-0.7-0.5l-6.2-2.7l-2.1-1l-2-1l-0.7-0.1l-1.8-0.1l-2.6-1.7l-1.8-1.9l-0.9-2.1l-0.4-1l-1.7-4.1l-0.2-0.9l-0.6-5l-0.6-1.4l-0.8-1.8
		l-0.2-3.9l-0.2-0.6l-0.9-3.5l0.6-1.3l0.7-1l0.6-2.6l-0.4-0.7l0.6,0l1.2-1l-0.1-1.5l0-0.7l-0.2-0.8l-0.3-1.6l0-2.4l0.8-2.6l0.2-0.4
		l0.3-2.7l0.1-5.6l-0.7-1.7l-0.8-0.8l-0.6-1.3l-1.3-1.7l-0.7-1l0.1-2l-0.5-1.6l-0.5-1.1l-0.2-2.5l-1-2.6l-0.3-0.6l0.4-2.3l0,0
		l0.2,0.2l0.4,0.2l-0.1-0.4l-0.1-0.6l0.2-1.8l0.3-1.2l-0.2-0.7l-0.7-0.3l-2.7-1.5l-2.2-1.1l-2.2-2.9c0,0-1-2.6-1-2.7l0.7-3.9
		l8.4-14.3l-8.1,14.5l-0.4,3.6l0.9,2.3l1.8,2l1,0.8l0.8,0.4l0.5-0.4l1-1.5l0.1-0.3l1.6-2.8l1.2-2.7l-0.1-2.5l0.5-2.7l4.3-8.7l0-1.4
		l0.2-0.7l0.9-1.5l0.2-0.4l1-1.6l0.9-1.1l0.3-0.3l1-1.8l0.2-0.9l0.7-2.4l0.2-0.5l0.9-0.6l0.7-0.5l0.2-0.7l1.7-1.4l0.7-0.9l0.5-3
		l1.9-2.1l1.7-1.9l0.3-0.5l0.7-1.1l0-0.2l0.7-1.8l1.3-1.7l0.6,0l0.6,0.5l0.5,0l0.9-1.7l0.4-0.5l0.5,0.2l-0.1,0.7l0.2,0.7l0.2,1
		l-0.3,1.2l-0.5,0.6l-1.3,0.7l-0.6,0.5l-0.5,1l-0.3,0.9l-0.7,1.8l0,0.1l-0.8,2.1l-0.4,0.1l-0.5,0.4l0.2,1.9l0.8,0.8l0.5,0.7l1.2,1.4
		l0.7-0.4l0-0.9l-0.1-1.3l0.4-2.3l0.7-0.8l0.9,0.9l0.1,2.3l-0.2,3.1l-0.1,1.7l-0.4,0.6l-0.3,1l0.1,0.2l-0.9,1.8l-0.5,1.3l0.3,0.3
		l0.3,0.8l-0.1,0.7l-0.2,1.6l-1.3,0.4l-1.2-0.3l-0.2-0.3l-0.4-0.8l-1,0.5l-0.8,1.2l-0.1,1l0.2,1.4l0.5,0.5l0.4,0.7l0.7,2.2l0.1,0.1
		l0.4,1.3l1,1l2.5,2.8l0.6,0.1l1,0.4l1.3,1.4l0.3,0.2l2.3,4.8l-1.4,3.9l-2.7,1.7l-1.6,1.2l-1.5,1.4l-0.9,1.3l0.2,0.5l1.7,0.5
		l0.6,0.4l1,0.1l1.2,0l0.3,0.2l2.5-0.4l0.7,0.2l1,1.4l0.3,0.8l0.5-0.7l1.8-0.1l0.6-0.1l0.8-0.1l1.9,0l0.7,0.2l0.8-0.2l1.1-0.4
		l1.4,0.7l0.7-0.1l1.1,0.2l2,0.2l1-0.1l0.9-0.1l0.6,0l1.9,1.2l0.6,0.6l1,2.2l1,1.5l0.5,1.6l0.5,2.6l1,2l0.2,0.3l0.3,0.5l0.7-0.6
		l0.4-1.1l0.1-0.6l-0.2-2.9l-0.2-1.4l-0.1-1L185,185l-0.8-1.9l-0.9-1.6l-0.7-0.6l-0.2-0.5l-0.3-1.6l-0.1-0.8l-0.1-1.3l-0.9-0.2
		l-0.3-0.4l0.5-0.8l-0.2-1.2l0.4-0.1l0.3-0.9l0-1.8l0-0.1l1.8-1.4l0.4-0.4l1.5-0.9l0.8-1l0.2-2.7l0.8-0.9l0.9-1.5l0.4-2l-0.6-1.3
		l-1.2-0.3l1.2-0.2l0.7-0.5l-0.5-0.4l-0.1-1.1l0.1-0.8l0.2-0.6l0.1-0.6l-0.5,0l-0.1,0.1l-0.8-0.1l-0.1-0.3l0.7-0.4l0.8-1.1l-0.5-0.2
		l-2.5-0.8l0-0.4l-0.6-0.6l-0.3-0.1l-0.9-1.7l-0.4-0.2l-1.3-0.2l-0.4-1.6l1.1-0.2l0.6,0.4l0.9-0.2l0.6,0.8l1.1,0.6l0.6,0.5l0.2,1.1
		l0.3,0.4l0.4-0.3l0.3-1l1.7,1.6l0.8,0.2l0.7,0.3l0.5,0.5l0.8,0.7l2.7,1.8l0.5,0.4l0.8,1.1l1.8,1.7l0.2,0.5l1.1,1.3l1.9,1.5l1.7,0.8
		l0.6-0.2l1.1,0.2l0.2,0.4l0.1-0.5l-0.8-1.2l-0.9-0.7l0.2-2.4l0.3-0.4l-0.4-0.3l-0.4-0.8l0-1.5l-0.8-0.8l-0.6-0.8l-0.8-0.6l-0.7-0.3
		l-2.2-1.5l-0.5-0.9l-0.4-1l-0.1-0.4l-0.5-2l-1.2-2.5l-0.2-1.9l-0.3-1.1l-0.4-1.5l0.8-0.7l0.5,0l1.1,1.4l1.2,0.3l0.4-0.2l0.1,0.5
		l0.6,1l2.2,1.2l0-0.4l-0.3-1.3l-0.6-1l-0.1-0.7l-0.1-0.6l-0.4,0.4l-0.6,0.4l-0.4-0.6l-0.7-0.7l-0.6-0.7l-0.1-0.8l-0.7-0.7l-1.3-0.4
		l-2.1-0.9l-0.2-0.5l1.1-0.8l0.9-0.6l1.2-1.2l0.4-0.5l-0.4-1l-0.3,0.1l-1.7,0.3l-0.5,0l-1.5,0.9l-1.3,0l-0.5-0.9l0.3-1.2l-0.1-0.7
		l-0.5,0.3l-0.7-0.1l-0.1-0.7l-0.7-0.7l-0.4-0.2l0.3-0.4l0.1-0.5l-2.9-2.3l-0.5-0.7l-1-0.4l-0.8-0.3l-0.8-0.5l-2-1.6l-1.6-0.7
		l-0.4,0.1l-0.3-0.2l0.3-0.3l0.3,0l0.3-0.3l-0.3-0.3l-0.2-1.7l0.9-1.6l1.3-0.9l1.7-0.2l0.5-0.4l-0.6-0.4l-0.3,0.1l-0.6-0.4l0.3-0.5
		l0.9-0.9l-0.6-0.1l-0.5-0.5l-0.3-0.3l-0.3,0.1l-2.3-1.4l-0.2-0.4l-0.6-1.8l0.6-1.1l0.5-0.6l-0.9-0.8l-1.3-0.4l-0.9,0.3l-0.7,0.1
		l-3.7-2l-4-1.2l-3.3-1l-0.4-0.1l-2.9-0.1l-0.6-0.1l-1.5-0.2l-0.4-0.1l-1.9-1l-1.4,0l-1-0.2l-1.6-0.7l-0.4-0.5l-0.3-0.3l-1.4,0.6
		l-1-0.3l-1.7-0.6l-0.6,0.2l-1.7,2.3l-0.5,0.8l-1.1-0.5l-1.4-1.9l-0.2-0.4l-2.5-1.2l-1.7,0l-1-0.1l0.2,1.3l2.2,2.3l0.2,0.5l-0.6,0.1
		l-1-0.5l-1.5-0.9l-0.9,0.3l-1.1,2.2l-3,6.1l-1.6,6.6l-0.2,1.5l-1.1,4.3l0.1,1.9l1.1,0.1l4,0.1l1.1,1.5l1.5,2l0.5,0.8l-0.8,0.4
		l-0.9,0.3l-1.2,0.2l-3.2,0.6l-1,1.5l-0.3,0.8l0.1,1.7l1.2-0.1l1.4-0.3l0.5,0l3.3-0.7l2.4,0.4l0.6,0.6l-0.1,2.4l-0.3,0.9l-0.5,0.4
		l-0.5-0.4l-1.1-0.1l0.2,2.1l0.1,0.9l-1.2,1.8l-0.5,0.5l-2.2,1.2l-1,0l-0.8-0.3l-3.1-2.4l-0.1-0.7l0-2.6l-0.7-2.8l-0.1-0.7l-0.3-1.1
		l0-2.9l0.3-1l0.7-3.4l0.4-1.8l0.6-4.7l-0.2-1l-1.6-4.6l-0.2-2.1l-0.2-0.4l-0.5-2.8l-0.1-1.2l-0.8-2.8l-0.3-0.8l0-3l0.3-0.5l0-4
		l-1.6-1.8l-2.1-0.5l-1.2-0.4l-2.4-1.9l-2.6-2.2l-0.3-0.5l0.7-2.5l1.5-2.2l0.1-0.4l0.3-5.6l0.4-1.5l0.2-0.8l0.8-2l1.6-1.9l0.2-0.8
		l1.1-1.6l2-1.7l2.9-3.4l0.5-1.6l0.4-0.9l3.6-3.6l2-0.5l3.9-1.8l3.1,0.1l0.3,0.2l1.4-0.8l1.3-1.3l6.4-6.2l4.1-1.7l11.1-0.1l1.1-0.3
		l10.8-6l0.8-0.8l4.5-7.6l1.1-0.8l12.6-2.9l13.1-3.7l3.1-1.6l3.5-2l1.4-0.2l11.8,2.3l0.9,0.6l2.1,2.8l3.8,4.3l7.6,7.5l1.2,0.5l8.2,0
		l6.5,0.9l7.2,1.9l1.1,0.6l7.2,8.3l4.1,5.9l5,7.4l1,0.9l4.3,2.8l0.6,1.1l-0.1,47.3l-0.1,21.8l-0.1,50.1l-0.1,38.5l-0.8,1.4l-6.8,4.3
		l-1.3,1.2l-6.1,5.9l-1.6,1.1l-6,3.8l-0.6,1.1l25.2,32.4L174.5,271.5z M174.7,207.9l1.3-2.5l0.6-0.1l0.9-0.3l0.7-0.2l0.4-0.1
		l-0.1-0.5l-0.1-0.9l-0.7-1.1l-0.5-0.4l-0.2-0.7l-0.4-0.2l-0.8-0.4l-0.4-0.8l-1.6-0.8l-0.2-0.1l-1.1,0.2l-0.6-0.2l0-0.5l-0.4-0.5
		l-0.4,0.5l-1.3,0.5l-0.3-0.2l-1.2,0.6l-0.2,0.5l-0.3-0.4l-0.1-0.4l-0.6-1.4l-1.3-1l-0.4,0.4l-0.1,0.4L165,197l-1,0.3l-0.7,0.8
		l-1,0.9l-1.2,0.5l-0.7-0.3l0.5,0.8l0.6,1.7l-0.5,3.6l-0.6,2.9l-0.6,0.3l-0.8,0.1l-0.4,0.1l-0.1-0.5l0-0.3l-0.3-0.4l-0.2,0.4
		l0.6,1.3l0.2,0.9l-0.1,0.6l1,0.3l0.5,0.3l-0.3,0.7l-0.3,1.9l0.3,0.3l0.3,0.7l0.1,0.4l0.4,1.5l0.3,1.8l1.3,0.6l0.9-0.5l0.2-0.2
		l2.4-2.4l0.6-0.5l0.1,0.8l0,0.3l0.5-0.4l0.5-0.3l0.6-0.7l0.5-0.6l1.9-1.6l0.1-0.5l0.2-0.7l0.8,0.6l0.1,0.2l0.2,0.4l0.4-0.4l0.6-1.8
		l1.2-1.7l0.4-0.3l0.7,0.1l0.8,0.3l0.3-0.8L174.7,207.9L174.7,207.9z M158,201.2l0.5-0.2l0.2-0.6l-1.8-0.5l-1.1,0.1l-0.5,0l-0.7-0.3
		l0.3-0.6l0.2-0.4l-0.4-0.1l-0.9-0.4l-0.9-1.8l-0.9-0.3l-0.2,1l0.2,0.5l-1,0.7l-0.5-0.2l-0.4-2.5l-1.3-1.7l-0.9-0.3l-0.4-0.1l0,0.3
		l-0.4,0.7l-1.3,0.6l-0.5,0.1l0-0.5l-0.2-0.6l-0.5,0.3l-1.5,0.4l-1.2,0l-0.9,0.2l-1.3-0.6l-0.9,0.1l-1.4,2.1l-0.5,1.5l0,0.3l0.2,2.3
		l0.1,2.7l0.3,0.5l0.5,0.3l1.3,0.1l0.4-0.1l0.9,0.1l0.7-0.1l2.2-0.2l0.8-0.2l1.8,0.1l2.4,0l2.1-0.5l0.6-0.1l0.7,0l2.1-0.3l3.5-0.7
		L158,201.2L158,201.2z M147.7,191.9l-2.2-3.9l-1.4-2.1l-1-0.2l-0.4,0.2l-0.2-0.3l-1-1.5l0.1,0.7l-0.3,0.2l-0.9,0.3l-1.8,2.5
		l0.5,1.2l0.7,1l0.3,1.5l1.5,1.6l0.5,0.2l1.8,0.3l1.1-0.3l1.2-0.2L147.7,191.9L147.7,191.9z M145.3,163.3l-0.6,0.3l-0.4,0.7
		l-0.6,1.3l0.2,1.4l0.7,0.7l0.1-0.5l0.3-0.5l0.5-0.5l1-1.8l-0.1-0.5L145.3,163.3L145.3,163.3z M147.3,149.2l-1.5-1.4l-0.3,0.3
		l0.2,1.7l0.4,0.3L147.3,149.2L147.3,149.2z"/>
	<path id="XMLID_482_" d="M161.8,127.9l-2,1.7l-0.7,0l0.1-0.6l-0.6-0.7l-0.5-0.4l0.2-1.5l0.8-2l-0.2-0.6l0-0.7l0.6-1l1.6-0.8
		l0.9,0.1l1.4-0.8l1.2-0.3l0.3,0l1.4,0.5l0.6-0.1l0.4-0.2l0.1,0.5l-0.1,0.7l0.8,0.7l1.1,0.3l1.9,0.7l2.3,0.5l0.8,0.1l1.9,0.7
		l0.9,0.6l1.3,0.3l4.1,2.8l1.3,0.8l0.6,0.5l2.1,2.6l0.5,1.1l-0.7,0.4l-0.8,0l-0.2,0.8l0.2,0.8l0.1,0.4l1.6,1.2l1.3,1l1.9,3.5
		l-0.3,0.5l-0.7-0.5l-1-0.7l-0.7-0.3l-1.3-0.8l-0.4-0.4l-2-2.2l-2.2-0.7l-2.6,1.4l-0.6,0.7l-1.1,0l-0.3-1.4l0.3-0.8l-0.5-1l-0.1-1
		l0.2-2.2l0.1-0.7l-0.1-1.1l-0.4-1.2l0.1-1.3l-0.7-0.6l-1.5-0.8l-1.5,0.1l-1.1,2.8l-1,1.4l-0.8,0.4l-3.2,0.8l-1.5,0.2l-0.7-1
		l0.1-0.3l-0.2-0.6l-0.4,0.4l0.1,2l0,0.4l-0.5,0l-1.1,0.1l-1.4,0.3l-2.3,0.8l-0.7-0.6l1.6-1.8l1.7-1.3l0-0.5l0.1-1.1L161.8,127.9
		L161.8,127.9z M168.7,127.4l-0.2-0.4h-0.8l-0.4,1.5l1,0.5l0.3-0.5L168.7,127.4L168.7,127.4z"/>
	<polygon id="XMLID_481_" points="158.2,112.1 159.4,112.2 159.5,112.2 161,112 163.3,111.8 164.5,112 166,112.7 166.8,112.9
		167.6,113.1 169.2,113.9 170.3,115 170.8,115.3 171.5,115.5 171.5,116.7 170.8,116.7 169.9,116.6 169.3,116.1 168.1,116.1
		167.3,116.6 163.7,116.9 162.8,117.2 159.8,117.6 157.4,117.3 155.5,117.1 154.9,116.8 154.4,116.4 154.3,115.4 154.5,115
		155.4,113.2 156.7,112.6 158.2,112.1 	"/>
	<polygon id="XMLID_480_" points="171.7,117 174,117.3 174.7,117.1 175.1,116.6 175.6,116.7 175.4,117.2 175.4,118.2 175.2,118.8
		174.7,118.7 173.4,118 171.7,117 	"/>
	<path id="XMLID_479_" d="M176.6,137.4c-0.2,0.4-0.6,0.8-0.9,1.1c0,0-0.2,0-0.2-0.1c-0.3-0.3-0.5-0.8-0.9-1c0,0,0-0.1,0-0.1
		c0-0.2,1-0.8,1.3-0.8C176.3,136.7,176.4,137,176.6,137.4z"/>
</g>
<g id="XMLID_434_">
	<path id="XMLID_458_" d="M263.3,269.7c2.2-24.8-2.7-49.3-4.6-73.9c-4.1,1.1-8,2-10.5-2.6c6-5.3,6.5-0.5,8.8-10.4
		c-2.3,1.1-5.4,2.3-7,1c0.7-2,4.5-4.2,5.8-1.5c1.1-6.3-9.9-1.7-13.6-5c-4.8-4.3-0.6-19.6-3.3-20.5c-3.2,9.2-1.8,25.5,3.7,34
		c-5.6-6.8-8.2-17.3-8.7-25.9c-0.2-2.9,4.2-19.9,5.4-17.6c-4.8-9.4-13.8-18.2-9.2-28.1c-7.7,4.1-1.3-13.4-1.3-14.6
		c0-4.2-4.9-1.4,3.1-6.2c-5.5-1.2-9.3-2.1-3.5-5.8c-8.4-5.2,5.5-6.8,5.3-10.5c-2.7-0.1,0.2-2.4,1-4.3c0.1,2,1,2.3,2.8,1
		c2.8,1.5,10.5-23.9,17.3-25.5c-2.2-4.6-2.7-9.5-1.7-14.5c1.4,4.1,1.3,2.1,1.4-1.7c1.3,1.2,5,0.3,6.2-0.1c-2.1,2.3,1.4,15.6,0.6,1.6
		c7.7,19.8,7.5-0.4,19-0.3c-1.9,1.4-2.2,2.5-0.8,3.2c3.1-3.9,4.7-6.2,2.5-1.1c7-3.1,30.6-11.8,30.6-12c8.2-1.3,13.6-3.6,19.7-5.8
		c-2.7,0.7-3.3,2-1.6,3.9c0.8-1,24.5-9.3,25.1-8c-1.6,0.7-15.3,4.9-12.8,6.9c7.8-4.7,7.2-4.3,0.9,2c1.9,1.4,2.7-0.3,5.2-0.8
		c-2.1,6.1,2.5,0.1,2.3,0.1c-0.3,11.4,16.8-1.1,19.1,6.8c-2-0.5-8-0.3-9.6,1.6c7.5,2.5-0.8,0.5-1.5,1.9c4,3.4,11.5,5,16.1,7.7
		c-3.6,7-10.9-7-2.9,2.7c2.3,2.8,14.7,9.8,7,7c2.2,2.3,17.4,16.5,15.3,18.6c-14.9-14.2,1.3,5.2-6.4-1.3c0.4,3,0.2,13.2,1.7,14.4
		c1.6-3.3,6.7,15.3-1.4,12.7c1.3,3.3-2.6,8.8-2,10.5c21.2,4,19.9,5.9,14.6,25.3c-4.7,17.1-15.2,21.2-28.4,20.8
		c3.9,3.7,13.7,10.1,9.5,12.4c7.1,4.1,6.5,9.4,1.9,17.4c-7-9.2-12-14-21.2-17.4c2.3,10.9,3.5,20.1,9.2,8.2
		c3.4,10.4,8.9,5.8,11.7,21.8c-0.7-2.9-2.6-4.2-5.5-3.9c-0.3,2.8,0.8,4.9,3.4,6.1c0-0.5,0-1-0.1-1.4c3.7,3.6,6.7,7.6,10.1,11.4
		c-0.9-3.5-1.9-7-2.8-10.5c2.4-0.8,3.2,9.6,2.5,1.1c1,1.5,3.2,12.6-1.8,11.4c1.3,2.6,0.8,5.1,2,8c-0.5,0.2-3.2,1.4-3.7,1.2
		c2.2-0.3,3,0.7,2.3,2.8c-3.8-7.4,0.4,14.6-5.3,5.3c-1.3,5,2.7,1.7-0.3,5.9c-4.2,5.9-15.5,11.2-18.2,16.6c-1.9,3.7-2.2,7.5-1.6,11.2
		c1.8,11.6,12.6,22.9,13.8,32.9C378.6,288.9,262.4,280.7,263.3,269.7C264.7,254.5,263.1,272.1,263.3,269.7z M365.8,212.5
		c1.6-2.1,0.3-3.2-4-3.4c-0.4,2.1,0.2,3.8,1.9,5c-0.3-3.5,9.7,3.7,11.5,5.1c1.7-0.9,1.7-2.4-0.1-4.4c2.9-1.5,4.5,0.8,4.9,7
		c1.6-11.4,1.8-1.9,5.1-3.9c-9.3-20.2-1.3-0.9-0.5-6.5c-5.1-0.6-1.6,1.9-1.6,4.5c-4.2-4-6.9-12.9,2.8-4.9c-0.6-5-9.4-16.1-13.8-18.8
		c-4.1-2.5-20.2-2.7-16.1,3.1c-0.4-2.8,1-3.7,4.2-2.7c0.1,3.5-6-4.2,0.1,3.3c3.4-0.1-9-0.5-7.9-1.1c2.9,3.7,7.8,13,10.2,9.4
		c0.7,5.3,2.6,3.5,6.9,6.9c-3.1,0.4,0,0.4-0.1,3.3C368.1,213.7,366.9,213.1,365.8,212.5C366.1,212,366.9,213.1,365.8,212.5z
		 M311.2,155.3c-10.8-1.3-17.7-2.6-22-13.2c-4.9,5.8-19.4-3.7-25.5,3.5c-3.5,4.1-1.9,14.5-0.9,19.5c1.2,6,4.2,17.6,11.3,21
		c-2.3,5-0.7,5.7,3.9,3.5c-2.5,4.8,2.4,0.7,3.5-0.5c3.8,7.5,4.6-1.2,8.1-3c-1.3,16.1,3.5-2.1,6.7-1.5c-0.7,4.8,1.6,4,0.9,7.9
		c6.3-6.1,12.4-8.7,5.2-11.8c1.3-3.9,6.1-4.4,4.7-7.4c-0.5,0.7-1.1,1.3-1.7,1.9c0-7.9,11.8-9.2,16.8-13.7c-8.2-4.3-4.9-3.3-15.5,0.1
		C306.2,159.4,307.2,155,311.2,155.3C308.8,155,308.8,155.1,311.2,155.3z M345.6,129.6 M344.3,200.8c1.1,0.8,2.2,1.6,3.3,2.4
		c-0.6-5.3,0.3-8.6,5.3-10.5c-1.4-1.5-12.5,0.4-14.3,0.9c-5.6,1.5-12.8,7.8-12,7.5c-2.4,1-3.3,2.7-2.9,5.3c3.7-1.9,4.1,2.5,3.6,4.8
		c2.3,0.3,3.2-0.6,2.8-2.8c1.6,0.4,1.8,3.6,2,5.1c1,0,1.3-0.7,0.9-2.2c0.4,1.2,8.4,4.5,6.7,0.5c0.6,0.3,11.5,0.7,10.4,5.6
		c3.3-7-5-1.6,0.9-6.9c-3.1,0.3-1.6-0.8-2.3-3.7C340.8,213.3,345.4,193.8,344.3,200.8C345.5,201.7,344.4,200.1,344.3,200.8z
		 M398.4,128.4c-2.5-1.4-17.1,13.7-9.3,19.1C397.9,153.6,398.5,131.8,398.4,128.4C398.3,128.3,398.5,133.5,398.4,128.4z
		 M329.4,182.5c0.1-4.1,5.3-4.3,6.8-2.8c1.9-2.8-3.4-2.8,0.4-3.4c-0.6-3-1.7-3.6-3.4-1.8c3.5-6.1-1.7-1.9-3-6.6
		c-2.1,5.9-0.6,3.5-5.7,3.3c-0.4-0.4-2.8,9.5-2.9,13.6c0.3,0,3.9-7.8,4.7-6.4C328.4,178.2,329.4,179.6,329.4,182.5
		C329.4,181.5,328.7,181.1,329.4,182.5z M255.6,176.2c4.3,0.7,1.3-10.8-0.1-13.3C247.2,166.1,255.5,173.3,255.6,176.2
		C256,176.3,255.6,175.3,255.6,176.2z M283.9,128.3c4.4,5.6-15.5-16.9-9,1.8C277.9,129.4,280.9,128.8,283.9,128.3
		C284.1,128.5,282.5,128.6,283.9,128.3z M388.9,121.8c1,0.5,6.1-3.2,6.2-4.6c-1.1-2-2.9-3.1-5.3-3.3
		C389.4,116.5,389.2,119.1,388.9,121.8C389,121.8,389.1,119.3,388.9,121.8z M302.9,189.6c0.2,2.1,1.6-0.4,2.5,1.2
		c-1.8,0.4-2.2,1.3-1.3,2.7c-0.1,0.1,11-5.2,4.1-7.5C307.6,188.9,305.8,190.1,302.9,189.6C302.9,189.9,304,189.4,302.9,189.6z
		 M350.9,202.8c-2.7,3.2,2.3,5.2,2.6,10.4c2.3-0.6-0.9-1.6,3.3-2.4C354.7,208.5,352.9,205.4,350.9,202.8
		C350.3,203.5,352.1,204.3,350.9,202.8z M360.7,170.7c-2.5,2.3,0.3,4.9,2,6.1C365,175.9,364.4,173.9,360.7,170.7
		C360.5,170.8,361.5,172.6,360.7,170.7z M319.9,159.2c2.4,0.9,3.8,0.3,4.1-2.2C321.8,156.2,320.5,157.1,319.9,159.2z M387,207
		c2-1.7,0.5-3-4.6-3.9C383.4,204.9,385,206.2,387,207C387.2,206.8,385.1,205.5,387,207z M284.1,118.8c1.9-0.1,3.8-0.2,5.8-0.3
		C287.7,116.8,285.4,117,284.1,118.8z M242.1,76.6c1.9,0.9,2.7-0.6,2.4-4.4C242.5,71.2,241.7,72.6,242.1,76.6
		C242.3,76.6,242.7,75,242.1,76.6z M349.5,181.2c1.5,2,3,0.8,4.5-3.8C352.5,178.7,351,179.9,349.5,181.2
		C349.6,181.4,350.9,180,349.5,181.2z M342.1,181.2c1.9-1,1-2.2-2.8-3.6c0.2-0.2-1.5,2.7-1.4,2.2
		C339.3,180.2,340.7,180.7,342.1,181.2C342.4,181.1,340.7,180.7,342.1,181.2z"/>
	<path id="XMLID_457_" d="M240.8,181.2c3.2,0.6,5.6,1.1,5.6,4.2c0,0.8-0.4,1.7-0.6,2.5c-0.9-0.3-2.2-0.4-2.6-1
		C242.2,185.2,241.7,183.4,240.8,181.2z"/>
	<path id="XMLID_456_" class="st0" d="M379.1,112.2c-3.4,0.2-7,0.5-10.5,0.7c-3.4,0.2-6.7,1.7-10.5,1c0-0.1-0.2,0.4-0.2,0.5
		c-1.2-0.3-2.2-0.4-3.2-0.8c-2.5-0.8-5.4,0-6.6,1.5c-2.8,3.5-6,1.2-8.9,1.2c-3.7,0-7.3-1-11-1.5c-4.6-0.5-9.3-1.4-13.9-1.2
		c-7.7,0.5-15.3,1.6-23,2.7c-3.3,0.5-6.6,1.4-9.9,2.2c-0.4,0.1-1.2,0.3-1.2,0.4c-0.1,2.3-1.6,3.4-3.2,4.5c-0.9,0.6-1.7,1.4-2.6,1.9
		c-6.3,3.2-11.9,7.3-17,12.2c-1.7,1.6-3.2,3.5-4.6,5.3c-0.4,0.5-0.3,1.4-0.6,2.4c-1.6,0.7-3.2-0.3-3.4-2.7c-0.4-4.5,2.6-6.9,5.6-9.1
		c4-3,8.4-5.6,12.5-8.4c0.6-0.4,0.7-1.6,1-2.4c0.7-1.6,1.5-3.3,2.2-4.9c-0.2-0.1-0.3-0.2-0.5-0.3c-0.4,0.4-0.8,0.8-1.7,1.5
		c0.1-1.4,0.1-2.4,0.2-3.4c0-0.2,0.1-0.4,0.1-0.6c-0.4-2.1-1-4.3-1.2-6.4c-0.1-1.1,0.5-2.2,0.7-3.4c0.1-0.8-0.2-1.7,0-2.5
		c0.5-3.9,3.6-6.5,5.1-9.9c0.1-0.2-0.1-0.6-0.2-1c2.1,0,3.6-0.7,3.3-3.2c0-0.3,0.3-0.8,0.6-1c3.2-2.2,6.9-3.1,10.6-4.1
		c1-0.3,2-0.6,2.8-1.2c2.7-1.7,5.3-3.6,8.1-5.2c1-0.6,2.4-0.3,3.4-0.8c3.8-1.6,7.8-1.3,11.8-1.2c1,0,1.9-0.1,2.9-0.4
		c4.2-1.2,8.2-0.6,12,1.4c1.7,0.8,3.5,1.4,5.3,1.9c0.6,0.2,1.2,0.1,1.8,0c1.2-0.2,2.4-0.6,3,1.1c0.1,0.4,0.8,0.6,1.3,0.8
		c1.8,0.9,3.8,1.8,5.5,2.9c1.1,0.7,1.8,2.2,3,2.8c1.1,0.5,2.5,0.4,4,0.5c0,0,0.1,0.6,0.4,1.5c0.6-0.5,0.9-0.8,1.5-1.3
		c0.1,0.8,0.2,1.5,0.3,2.5c0.7,0.2,1.9,0.1,1.8,2c0,1.6,1.9,2.6,3.4,3.4c1.3,0.8,2.5,1.8,1,4c2.1,0.1,3.7,0.1,5.6,0.1
		c0.1,0.2,0.4,0.7,0.4,0.7c1.6,0,3.2,1.3,4.4,1.2C376.7,104.1,376,107.5,379.1,112.2z"/>
	<path id="XMLID_453_" class="st0" d="M309.6,158.2c-2.3-0.2-2.7,1.6-3.2,2.6c-0.9,0.1-1.5,0.1-2.1,0.2c0.3,1.1,0.6,2.3,0.9,3.4
		c0.2-0.1,0.4-0.1,0.6-0.2c0.2-2,1.7-2.9,3.8-2.7c1.1,0.1,2.7,0.9,3.6-0.8c0.2-0.3,1.3-0.1,2-0.7c0.7,0.3,1.4,0.5,2.2,0.8
		c-0.3,0.6-0.6,1-0.8,1.5c1.4,0.7,2.7,1.4,3.7,2c-0.6,0.6-1.4,1.3-2.2,2c-0.3,0.3-1,0.6-1.1,0.5c-3-2.2-4.8-0.6-6.4,2.3
		c0.8,0.2,1.6,0.4,2.6,0.7c-1.2,1.3-2.3,2.5-3.5,3.8c-1.8-2.6-3.2,2.2-5,0.2c-0.3,0.9-0.7,1.7-0.9,2.6c-0.1,0.5,0,1,0,1.5
		c0.3-0.3,0.6-0.6,0.9-1c0.2-0.3,0.5-0.6,0.8-0.9c0.3,0.6,0.5,1.2,0.9,2.1c-1.6,0.6-3.4,1.2-5.4,1.8c0.4,0.4,0.7,0.6,0.8,0.7
		c-0.3,0.9-0.6,1.8-0.9,2.7c0.1,0.1,0.2,0.1,0.4,0.2c0.3-0.4,0.6-0.9,0.9-1.5c1.1,0.8-0.4,3.7,2.3,2.8c0,0.7-0.2,1.5,0.1,1.9
		c1.2,1.6-0.3,2.3-1.1,2.8c-1,0.6-2.5,0.6-3.4,1.3c-1.6,1.2-2.9,2.7-4.3,4c0.1-0.6,0.3-1.6,0.5-2.7c-0.4-0.8-2.9,0.2-1.8-2
		c0.4-0.9,0.3-2,0.5-3.1c-0.2,0-0.5-0.1-0.7-0.1c-0.4,1.6-0.8,3.2-1.3,4.9c-0.7-0.5-1.7-1.2-2.6-1.8c0,1.1,0.4,2.4,0,3.4
		c-0.3,0.8-1.4,1.3-2.6,2.3c0.2-2.9,0.4-5.1,0.6-7.2c-0.7,0.4-1.4,0.7-2,1c2.1,4.1-3.7,2.5-3.5,5.3c-0.3,0-0.5-0.1-0.8-0.1
		c-0.5-1.1-1.1-2.1-1.7-3.2c-0.7,0.7-1.5,1.7-2.4,2.4c-0.5,0.3-1.4,0.1-2,0c0.2-0.5,0.5-1,1-2c-1.6,0.7-2.8,1.3-4.1,2
		c0.1-0.6,0.2-1,0.4-1.6c-0.6-0.1-1.2-0.3-1.6-0.4c0.6-1.2,1.1-2.3,1.6-3.3c-0.1-0.1-0.2-0.1-0.4-0.2c-0.4,0.5-0.7,1-1,1.4
		c-0.7-0.6-1.3-1-1.9-1.5c-1.6-1.6-1.4-4-2.1-6.2c-0.8-2.3-1.3-4.7-1.9-7c-0.9,0.5-1.5,0.9-2.1,1.3c-0.3-0.8-0.6-1.5-0.9-2.3
		c-0.2-0.6-0.3-1.3-0.4-1.9c0.7-0.2,1.3-0.4,1.9-0.6c0-0.2-0.1-0.3-0.1-0.5c-0.8-0.2-1.5-0.3-2-0.4c-0.1-1.1-0.1-1.9-0.2-2.8
		c0-0.4-0.1-0.8-0.1-1.2c0-0.6,0-1.2,0-1.8c-0.1-0.8-0.2-1.6-0.3-2.3c-0.1-1.8-0.2-3.5-0.3-5.3c0-0.6-0.1-1.3,0-1.9
		c0.3-1.6,1.4-3.3,1-4.6c-0.7-2,0.1-3.4,1.3-4.1c1.3-0.7,3.1-0.6,4.7-0.6c1.4,0,3,0.8,4.1,0.4c2.1-0.8,4.1-0.2,6.1-0.2
		c0.7,0,1.5-0.6,2-0.3c1.6,0.9,3.2,1.7,4.7,2.5c1-1.2,1.8-2.1,2.7-3.2c0.5,1.2,0.9,2.3,1.4,3.4c2.4,5.9,7.3,7.9,13.1,8.7
		C304.8,157.7,307.2,157.9,309.6,158.2z M303.3,185.3c-2.7-0.2-2.7-0.2-1.6,3.8C302.3,187.7,302.8,186.6,303.3,185.3z"/>
	<path id="XMLID_452_" class="st0" d="M358.2,158.6c-0.2-0.1-2.5-1.6-3.8-1.6c-3.7,0-4.8,0.8-7.2,1.6c-0.6,0.2-1.5,0.5-2.1,0.3
		c-1.5-0.5-8-2.2-9.9-1.5c-5,0.1-2.9-5.5-1.6-7.5c3.3-4.9,5.9-10.2,8.2-15.7c1.2-2.9,5.3-3.6,7.3-1.1c3.6,4.4,7.2,9,10.3,13.8
		c2.6,4,3.2,6.9,5.2,11.3C365,159.3,361.3,160.3,358.2,158.6z"/>
	<path id="XMLID_451_" class="st0" d="M363.2,214.3c1.1,0.6,2.2,1.1,3.4,1.8c0-0.7,0-1.5,0.1-2.3c-0.5-0.1-1-0.1-1.5-0.2
		c0-0.2,0-0.3,0-0.5c0.5-0.1,1-0.1,1.6-0.2c-1.2-1-2.4-1.9-3.8-3c-0.4,0.2-1.1,0.5-1.9,0.8c1.9-2.2-0.9-3-1.1-4.6
		c-0.6,0.8-1,1.5-1.6,2.4c-0.4-0.7-0.8-1.2-0.9-1.3c0.4-1.1,0.7-1.9,0.8-2.2c-2.8-1.6-5.3-3.1-8.1-4.7c2.1-1.3,0.6-2.3-0.3-3.4
		c2.2-1.2,1.7,1.9,3.1,1.2c1.6,0,3.1-0.1,4.6-0.1c-0.5-0.6-1.2-1.5-2.2-2.7c1,0.1,1.6,0.1,2.1,0.2c0-0.2,0-0.5,0-0.7
		c-1.3,0.1-2.6,0.2-3.9,0.4c-0.1,1-0.2,1.7-0.3,2.3c-0.5-0.8-1.1-1.4-1.5-2.2c-0.1-0.2,0.5-0.9,0.9-1c2.5-0.4,5-0.7,7.6-1
		c0.1-0.7,0.1-1.5,0.3-2.6c3,1.2,6.7,1.7,8.5,3.8c3.4,3.8,8.5,6.5,9.3,12.4c0,0.2,0.1,0.4,0.3,0.5c1,0.6,2.2,1,2.9,1.9
		c0.7,0.8,1,2.1,1.2,3.6c-1.8-1.5-3.6-3-5.3-4.4c-2.9,4.3-0.1,6.6,2.6,9.2c0-1.7-3.1-2.9-0.8-4.6c0.5-0.4,1.6,0.1,2.4,0.2
		c0,0.2-0.1,0.5-0.1,0.7c-0.6-0.1-1.3-0.2-2.2-0.4c1,2.2,1.9,4.1,2.8,6c-0.2,0.1-0.4,0.2-0.5,0.3c-0.4-0.6-0.8-1.1-1.2-1.8
		c-0.3,0.3-0.6,0.7-0.9,1c-0.4-0.6-0.7-1.3-1.4-2.5c-0.3,2.4-0.6,4.2-1,6.7c-1.6-2.8-2.9-5-4.2-7.1c-0.2,0.1-0.4,0.2-0.6,0.3
		c0.3,1.2,0.6,2.5,0.9,3.7c-0.3,0.2-0.6,0.4-0.9,0.7c-1.5-1.2-3.1-2.4-4.9-3.8c0,0.9,0,1.3-0.1,2.1
		C365.9,217.4,364.6,215.8,363.2,214.3L363.2,214.3z"/>
	<path id="XMLID_449_" class="st0" d="M342,202.8c0.1-0.7,0.3-1.5,0.5-3.1c-1,1.6-1.7,2.6-2.2,3.6c-0.1,0.1,0.6,0.9,1,0.9
		c1.2-0.1,1.2-0.1,0.9,1c-0.1,0.4,0.1,0.8,0.2,1.2c0.1,0.4,0.4,1.1,0.3,1.2c-1.6,1.1-0.7,1.7,0.3,2.4c0.3,0.2,0.3,0.7,0.4,1.2
		c1-0.8,1.8-1.5,3-2.4c0.3,1.2,0.5,1.8,0.5,2.4c0,0.5-0.2,1-0.3,1.5c0.6-0.1,1.2-0.1,2-0.2c-0.9,0.8-1.8,1.6-2.5,2.2
		c1,0.4,2.3,0.6,2.4,1c0.2,1.1-0.1,2.2-0.7,3.4c0.6-2.7-1.2-3.5-3.1-4c-0.4-0.1-1.1,0.8-1.4,1.1c-0.4-0.8-1.1-1.8-1.7-2.8
		c-0.1,0-0.2,0.1-0.4,0.1c0.1,0.7,0.1,1.3,0.3,2.2c-1.4-0.7-2.5-1.3-4-2.1c0.4,0.8,0.6,1.4,0.9,2c-0.1,0.1-0.3,0.3-0.4,0.4
		c-0.5-0.5-1-1-1.8-1.8c-1,0.2-3.2-1.9-4.2,1.5c-0.4-0.9-0.6-1.6-1-2.6c-0.1,0.9-0.2,1.5-0.3,2.1c-0.2,0-0.3,0.1-0.5,0.1
		c-0.1-0.6-0.1-1.2-0.3-1.7c-0.3-1-0.6-2.1-0.9-3.1c-0.1-0.1-0.5-0.1-0.8-0.2c-0.1,0.6-0.2,1.3-0.3,2.2c-0.6,0.1-1.4,0.3-2.5,0.6
		c0.2-1,0.3-1.6,0.5-2.2c-0.5-0.1-1-0.2-1.8-0.4c0.7-0.4,1.2-0.7,1.5-0.9c-0.3-0.9-0.6-1.7-0.9-2.7c-1,0.5-1.9,1-2.8,1.4
		c-1.7-3.4-6.1-7-6.5-6.9c-18.1-19.6,2.2-6.3,6.9-5.7c2.3,0,8.2-1,12.1,1.3c2-3.8,6.1-1.7,9.3-2.6c0.4-0.1,1.1,1.1,1.6,1.7
		c1.2-2.4,3.6-2.9,5.3-1.2c-1.4,0.5-2.8,1-4.2,1.5c-0.4,0.8-0.8,1.6-1.1,2.4c0.5,0.3,1.2,0.7,1.8,1.1c-0.4,0.6-0.8,1.3-1.3,1.7
		c-0.9,0.7-1.4,1.2-0.5,2.3c0.2,0.2,0.1,0.7,0.2,1.3C344.1,204.4,343.3,203.7,342,202.8z"/>
	<path id="XMLID_448_" class="st0" d="M395.2,131.8c0.1,5,0.4,10-1.5,14.8c-1.1,2.7-3.2,4.4-6,5.1c-0.5,0.1-1.5-0.6-1.7-1.1
		c-0.8-2-1.5-4-1.9-6.1c-0.4-1.6-0.1-3,1.4-4.3c3.2-2.7,6.1-5.8,9.2-8.7C394.8,131.6,395,131.7,395.2,131.8z"/>
	<path id="XMLID_447_" class="st0" d="M327.5,184.9c-0.7-1.4-1.4-2.7-2.1-4c-0.3,0-0.6,0-0.9,0c1.7,2.9-1.1,1.6-1.5,2.6
		c-0.4-0.8-0.6-1.4-0.9-2c-0.2,0-0.4,0-0.6,0c-0.4,1.8-0.7,3.7-1.1,5.5c-0.2,0-0.4,0-0.6,0c0-1.8,0.1-3.6,0.2-5.4
		c0-0.4,0.3-0.8,0.3-1.3c-0.1-4.2-0.1-4.2,3.9-5.1c-0.5-0.5-0.8-0.8-1.5-1.5c1.2,0,2.2,0,3.1,0.1c0.4,0.1,0.8,0.6,1,0.8
		c0.4-1.2,0.8-2.4,1.5-4.2c0.4,1.5,0.6,2.2,1,3.5c0.3-0.9,0.5-1.3,0.6-1.8c1.1,0.5,2.1,1,3.2,1.4c-0.5,0.9-1.1,1.9-1.9,3.3
		c0.8-0.5,1.2-0.8,1.5-1c0.6,0.9,1.1,1.7,1.8,2.8c-0.3,0-0.8,0.1-1.3,0.2c-0.1,0.2-0.2,0.3-0.3,0.5c0.7,0.4,1.4,0.8,2.2,1.2
		c-0.2,0.2-0.5,0.8-0.9,1.4c-0.7-0.7-1.4-1.4-2.5-2.5c0.2,1.3,0.3,2.1,0.4,3.1c-1.5,0-3-0.1-4.5-0.1
		C327.5,183.1,327.5,183.9,327.5,184.9z"/>
	<path id="XMLID_446_" class="st0" d="M282.9,131.8c-1.4,0.3-2.9,1-4.2,0.8c-1.7-0.3-3.2-0.4-4.6,1c-0.1-0.2-0.1-0.4-0.2-0.6
		c1.9-1.7,3.7-3.5,5.7-5c1.4-1,4.7,0.5,4.8,2.2c0,0.7-0.7,1.4-1,2.2C283.2,132.2,283,132,282.9,131.8z"/>
	<path id="XMLID_445_" class="st0" d="M385.8,125.3c0.3-2.4,0.5-4.8,0.9-7.8c1.4,0.5,2.8,0.8,3.9,1.5c1.9,1.2,1.8,2.2-0.2,3.5
		c-1.4,0.9-2.7,2-4,3.1C386.2,125.5,386,125.4,385.8,125.3z"/>
	<path id="XMLID_444_" class="st0" d="M301.5,191.8c1.1-0.2,2.3-0.3,3.5-0.5c0.4-0.8,1.1-1.9,1.7-3c0.3,0.1,0.5,0.2,0.8,0.3
		c-0.4,2.2,12.2,14.3,14,15.7c6.9,5.2-16-8.7-16.2-8.8c-1.4-1.1-1.4-1.1-2.6,0.3c-0.2-0.6-0.4-1.1-0.4-1.4c0.6-0.4,1.2-0.8,1.7-1.2
		c-0.1-0.2-0.2-0.4-0.3-0.6c-0.7,0.1-1.3,0.2-2,0.3C301.5,192.4,301.5,192.1,301.5,191.8z"/>
	<path id="XMLID_443_" class="st0" d="M348.6,204.8c1.1,1.5,1.2,4,3.9,4c0.1,0,0.3,0.6,0.4,1c0.1,0.6,0.1,1.2,0.4,1.7
		c0.2,0.5,0.7,0.8,1.1,1.3c-0.8,0.1-1.6,0.3-2.4,0.4c0,0.4-0.1,1.1-0.1,1.7c-0.2,0.1-0.5,0.1-0.7,0.2c-0.2-3.4,0.6-7.3-4.5-8
		C347.5,206.1,348,205.5,348.6,204.8z"/>
	<path id="XMLID_442_" class="st0" d="M363.2,214.3c-0.7-0.2-1.5-0.4-2.3-0.6c0,0.6,0.1,1.4,0.2,2.3c-2.5-0.8-1.3-3-1.8-4.9
		c1.6,0.8,3,1.5,4.5,2.2C363.7,213.4,363.4,213.9,363.2,214.3C363.2,214.3,363.2,214.3,363.2,214.3z"/>
	<path id="XMLID_441_" class="st0" d="M358.2,173.3c0.8,1.9,1.6,3.8,2.5,5.8c-0.2,0.1-0.3,0.1-0.5,0.2c-0.8-0.6-1.6-1.2-2.7-2
		c0.1-0.9,0.2-2.2,0.3-3.6C357.9,173.6,358,173.4,358.2,173.3z"/>
	<path id="XMLID_440_" class="st0" d="M318.1,162.1c0.6-2.1,1.8-2.9,4-2.2C321.9,162.4,320.5,163,318.1,162.1z"/>
	<path id="XMLID_439_" class="st0" d="M384,208.9c-1.8-1.5-4.6-2.2-4.6-3.8c1.1,0.7,3.1,2,5.1,3.3
		C384.3,208.5,384.1,208.7,384,208.9z"/>
	<path id="XMLID_438_" class="st0" d="M283.1,122.4c1.2-1.8,3.5-2,5.7-0.3C286.8,122.2,284.9,122.3,283.1,122.4z"/>
	<path id="XMLID_437_" class="st0" d="M347.2,183.6c1.4-1.2,2.8-2.4,4.4-3.7c-1.4,1.5-2.6,2.9-3.9,4.2
		C347.5,184,347.3,183.8,347.2,183.6z"/>
	<path id="XMLID_436_" class="st0" d="M340,183.6c-1.4-0.5-2.8-1-4.2-1.5c0-0.1,0-0.3,0.1-0.4c0.4,0,0.8,0,1.3,0
		c-0.2-0.6-0.3-1-0.4-1.5c0.1-0.1,0.3-0.2,0.4-0.3c1.1,1,2.3,2.1,3.4,3.1C340.4,183.3,340.2,183.5,340,183.6z"/>
	<path id="XMLID_435_" d="M303.3,185.3c-0.5,1.2-1,2.3-1.6,3.8C300.6,185.1,300.6,185.1,303.3,185.3z"/>
</g>
<path id="XMLID_433_" d="M160,271.5"/>
<rect id="XMLID_431_" x="16.1" y="265.4" transform="matrix(0.9996 -2.965728e-02 2.965728e-02 0.9996 -9.0263 8.0664)" width="502.6" height="85.9"/>
<g id="XMLID_420_">
	<g id="XMLID_16_">
		<polyline id="XMLID_24_" class="st1" points="512.2,331.2 512.4,337.2 506.4,337.4 		"/>
		<line id="XMLID_23_" class="st2" x1="494.2" y1="337.8" x2="35.1" y2="351.4"/>
		<polyline id="XMLID_22_" class="st1" points="28.9,351.6 22.9,351.8 22.8,345.8 		"/>
		<line id="XMLID_21_" class="st3" x1="22.4" y1="334" x2="21.2" y2="293"/>
		<polyline id="XMLID_20_" class="st1" points="21,287.2 20.8,281.2 26.8,281 		"/>
		<line id="XMLID_19_" class="st2" x1="39.1" y1="280.6" x2="498.2" y2="267"/>
		<polyline id="XMLID_18_" class="st1" points="504.3,266.8 510.3,266.6 510.5,272.6 		"/>
		<line id="XMLID_17_" class="st3" x1="510.8" y1="284.4" x2="512.1" y2="325.4"/>
	</g>
</g>
<rect id="XMLID_44_" x="44.8" y="291.1" transform="matrix(0.9996 -2.965729e-02 2.965729e-02 0.9996 -9.6261 9.3616)" class="st4" width="531.9" height="76.2"/>

<text id="XMLID_418_" transform="matrix(0.9996 -2.966000e-02 2.966000e-02 0.9996 44.708 328.7236)" class="st5 st6 st7">Ballaballa-Balkan</text>

<g id="XMLID_77_">
	<path id="XMLID_416_" class="st5" d="M193.5,265l-10.9-14.5l0.5,14.9l-3.5,0.1l-0.8-20.9l3.5-0.1l11,14.5l-0.5-14.9l3.5-0.1
		l0.8,20.9L193.5,265z"/>
	<path id="XMLID_414_" class="st5" d="M204.7,247.1l0.2,5.2l8.7-0.3l0.1,3.5l-8.7,0.3l0.2,5.2l10.5-0.4l0.1,3.5l-13.9,0.5l-0.8-20.9
		l13.9-0.5l0.1,3.5L204.7,247.1z"/>
	<path id="XMLID_408_" class="st5" d="M236.7,242.5l0.4,12.2c0,0.2,0.1,2.2-0.9,4.3c-1.3,2.9-4,4.6-7.5,4.7
		c-3.5,0.1-6.3-1.4-7.8-4.2c-1.1-2-1.2-4-1.2-4.2l-0.4-12.2 M236.7,242.5 M219.3,243.1 M233.3,246.1 M222.7,243l0.4,12.2
		c0,0,0.1,1.4,0.8,2.7c0.9,1.6,2.4,2.3,4.6,2.3c2.2-0.1,3.6-0.9,4.4-2.6c0.7-1.4,0.6-2.8,0.6-2.8l-0.4-12.2"/>
	<path id="XMLID_259_" class="st5" d="M245.1,245.7l0.2,5.2l8.7-0.3l0.1,3.5l-8.7,0.3l0.2,5.2l10.5-0.4l0.1,3.5l-13.9,0.5l-0.8-20.9
		l13.9-0.5l0.1,3.5L245.1,245.7z"/>
	<path id="XMLID_257_" class="st5" d="M260.1,256.4l3.5-0.1c0.1,1.7,1.6,2.5,3.1,2.5c1.6-0.1,3-1.1,3-2.7c-0.1-1.8-1.7-2.5-3.1-2.5
		c-0.2,0-1.6,0.1-3.2-0.6c-2.2-0.9-3.5-2.8-3.6-5.3c-0.1-3.7,2.9-6.2,6.3-6.3c3.6-0.1,6.5,2.3,6.7,5.9l-3.5,0.1
		c-0.1-1.7-1.6-2.5-3.1-2.5c-1.6,0.1-3,1-3,2.7c0.1,1.7,1.6,2.6,3.1,2.5c0.1,0,1.6-0.1,3.1,0.6c2.2,0.9,3.5,2.8,3.6,5.3
		c0.1,3.7-2.9,6.2-6.3,6.3C263.3,262.3,260.3,260.1,260.1,256.4z"/>
	<path id="XMLID_87_" class="st5" d="M312.5,239.7l-7.6,21.2l-9.1-20.6 M312.5,239.7 M295.8,240.3 M299.7,240.2l4.9,11.3l4.2-11.7"
		/>
	<path id="XMLID_84_" class="st5" d="M312.8,250c-0.2-5.6,4.2-10.4,9.9-10.6c5.6-0.2,10.4,4.2,10.6,9.9c0.2,5.6-4.2,10.4-9.9,10.6
		C317.8,260,313,255.6,312.8,250z M317.4,249.8c0.1,3.1,2.7,5.6,5.9,5.5c3.1-0.1,5.6-2.7,5.5-5.9c-0.1-3.1-2.7-5.6-5.9-5.5
		C319.7,244,317.3,246.6,317.4,249.8z"/>
	<path id="XMLID_82_" class="st5" d="M359.1,259l-3.5,0.1l-0.5-12.8l-5.5,13.1l-3.3,0.1l-6.9-12.9l0.5,13.1l-3.5,0.1l-0.8-20.9
		l3.6-0.1l8.5,16l7-16.5l3.6-0.1L359.1,259z"/>
</g>
<rect id="XMLID_41_" x="223.1" y="242.6" width="9.7" height="0.6"/>
<polygon id="XMLID_42_" points="312.7,239.7 300.3,240.2 295.5,240.3 299.1,239.5 312.5,239.5 "/>
</svg>
